<svg width="121" height="120" viewBox="0 0 121 120" fill="none" xmlns="http://www.w3.org/2000/svg">
<g filter="url(#filter0_d_538_508)">
<path d="M115.359 55.9828V59.5683C115.296 59.9926 115.278 60.4224 115.307 60.8504C115.381 65.1239 114.526 69.2692 113.338 73.3546C112.494 76.244 111.391 79.0529 110.042 81.7478C108.092 85.6978 105.647 89.3892 102.764 92.735C99.8155 96.1785 96.4417 99.2423 92.7219 101.855C85.4479 106.958 77.0107 110.201 68.1626 111.295C66.4814 111.472 64.7909 111.549 63.1004 111.526H59.835C53.6714 111.603 47.7713 110.295 42.0439 108.141C36.5227 106.071 31.3953 103.092 26.879 99.329C16.8556 91.1006 10.1739 79.5665 8.06425 66.8504C7.76902 65.1166 7.5987 63.3644 7.55457 61.6068C7.5157 59.8974 7.55457 58.1581 7.52002 56.4316C7.52562 51.8289 8.23182 47.2534 9.61487 42.8589C11.1201 37.8604 13.3614 33.1085 16.2665 28.7563C17.839 26.3983 19.5966 24.1663 21.5231 22.0811C24.5907 18.7456 28.074 15.809 31.8893 13.3418C36.7002 10.219 41.9908 7.88825 47.5553 6.44009C50.0895 5.75851 52.675 5.27976 55.2868 5.00846C56.5917 4.88736 57.9028 4.84312 59.213 4.87599H63.6964C69.562 4.79906 75.1554 6.11103 80.6193 8.11958C86.4855 10.2922 91.9165 13.4752 96.6611 17.5213C106.54 25.9031 113.039 37.5231 114.97 50.2563C115.197 51.8261 115.31 53.4099 115.307 54.9957C115.279 55.3255 115.297 55.6576 115.359 55.9828Z" fill="#E3E8D4"/>
<path d="M62.8929 4.88452C62.8908 4.91725 62.8908 4.95008 62.8929 4.98281H58.1201C58.1201 4.94862 58.1201 4.91444 58.1201 4.88452H62.8929Z" fill="#ECF0E2"/>
<path d="M64.1715 110.09V110.188H60.647C60.6492 110.155 60.6492 110.123 60.647 110.09H64.1715Z" fill="#F7F8F2"/>
<path d="M116.301 59.53H116.188C116.231 59.1026 116.072 58.624 116.288 58.1924L116.301 59.53Z" fill="#EDF1E4"/>
<path d="M116.188 53.5813H116.288V54.6069C116.098 54.2736 116.236 53.9232 116.188 53.5813Z" fill="#F5F7EF"/>
<path d="M51.1533 90.9231C49.9219 90.5966 48.7233 90.1588 47.5727 89.6154C44.7753 88.3939 42.1525 86.8134 39.7721 84.9146C35.7409 81.7169 32.4293 77.7213 30.0494 73.1838C28.5047 70.2213 27.3964 67.0553 26.7581 63.7821C26.42 62.0111 26.2064 60.2191 26.1189 58.4189C25.8367 52.9872 26.8256 47.5644 29.0084 42.5727C30.4057 39.3422 32.287 36.3384 34.5889 33.6625C36.8354 31.0113 39.4535 28.6915 42.3636 26.7736C48.9369 22.4698 56.7498 20.4053 64.6165 20.8932C68.7856 21.1311 72.8796 22.0946 76.7105 23.7394C83.8255 26.7709 89.7843 31.9588 93.7284 38.5556C95.8803 42.145 97.3719 46.0835 98.134 50.1881C98.4619 52.0139 98.6582 53.8604 98.7214 55.7137C98.7626 56.9021 98.741 58.0917 98.6567 59.2779C98.5204 61.6251 98.1265 63.9508 97.4818 66.2137C96.1319 71.1364 93.7328 75.7161 90.4457 79.6454C89.311 80.9986 88.0813 82.271 86.7657 83.4531C84.6851 85.3675 82.3621 87.0065 79.8549 88.3291C79.2027 88.671 78.6196 89.1539 77.8594 89.265C77.7212 88.765 78.1142 88.5556 78.4209 88.3462C79.0861 87.8847 79.7728 87.4573 80.4121 86.9573C80.4779 86.9177 80.5346 86.8649 80.5786 86.8023C80.6226 86.7398 80.6529 86.6688 80.6675 86.5939C80.6822 86.5191 80.6809 86.442 80.6636 86.3677C80.6464 86.2934 80.6137 86.2235 80.5676 86.1625C80.5147 86.0558 80.424 85.9721 80.3127 85.9274C79.3409 85.5001 78.3777 85.0214 77.3929 84.5984C76.9857 84.4126 76.6582 84.0901 76.4686 83.6881C75.4319 81.8291 75.2462 79.8206 75.1728 77.7479C75.0821 74.718 75.5443 71.765 76.0366 68.7736C76.4042 66.4075 76.5244 64.0102 76.3951 61.6197C76.3215 60.0485 76.0915 58.4882 75.7084 56.9616C75.2034 54.8172 75.3537 52.5726 76.1403 50.5129C77.6564 46.3291 78.9867 42.0855 80.2263 37.8163C80.534 36.6876 80.5666 35.5027 80.3214 34.3591C80.0277 32.8334 78.5937 32.1967 77.2417 32.9702C76.3934 33.429 75.7573 34.1946 75.4665 35.1069C75.3325 35.4957 75.2299 35.8944 75.1598 36.2992C74.6674 39.4787 73.4624 42.4189 72.0759 45.2736C71.6699 46.1283 71.2509 46.9274 70.819 47.7479C70.7196 47.9402 70.6246 48.1753 70.3525 48.1753C70.0804 48.1753 70.0372 47.9317 69.9206 47.7479C69.2986 46.6454 68.7198 45.5214 67.7609 44.6326C67.3611 44.1977 66.8223 43.912 66.2349 43.8233C65.6475 43.7346 65.0472 43.8483 64.5344 44.1454C64.1094 44.3723 63.7061 44.6369 63.3294 44.936C62.7894 45.3633 62.6642 45.3334 62.1848 44.8719C61.775 44.4429 61.2767 44.1063 60.7236 43.885C60.1706 43.6638 59.5758 43.5631 58.9799 43.5898C58.4172 43.5952 57.864 43.7338 57.3665 43.994C56.8691 44.2542 56.4418 44.6285 56.1205 45.0855C55.8065 45.5367 55.5388 46.0177 55.3214 46.5214C55.2394 46.7052 55.1659 46.9488 54.9197 46.9488C54.6735 46.9488 54.5353 46.7351 54.4446 46.5214C54.0732 45.7351 53.7319 44.9317 53.3907 44.1283C51.8243 40.4417 50.2405 36.7608 48.6395 33.0855C48.4017 32.535 48.0986 32.0142 47.7368 31.5343C46.7347 30.1967 45.0502 30.4274 44.1648 31.0385C43.8181 31.2844 43.5463 31.6195 43.3787 32.0076C43.2112 32.3956 43.1544 32.8216 43.2145 33.2394C43.2784 34.1627 43.4703 35.0729 43.7847 35.9445C44.9638 39.2992 46.1991 42.6368 47.3913 45.9915C48.0521 47.842 48.687 49.7009 49.3522 51.5471C49.6805 52.4931 49.7107 53.5154 49.4386 54.4787C48.9462 56.2949 48.2422 58.0428 47.5943 59.812C47.1926 60.9189 46.7304 62.0001 46.7779 63.2308C46.7754 64.3098 47.1288 65.3601 47.7843 66.2223C49.1233 67.9317 50.3759 69.718 51.8185 71.3505C52.2504 71.8462 52.7385 72.2778 53.1618 72.7736C54.9845 74.9103 55.8354 77.4061 56.2112 80.1155C56.2501 80.4018 56.3062 80.6881 56.3192 80.9702C56.3828 81.5474 56.2466 82.1289 55.9327 82.6195C55.6189 83.1102 55.146 83.4809 54.5915 83.671C54.0818 83.8804 53.5549 84.0556 53.0668 84.312C52.7091 84.4545 52.4159 84.7207 52.2419 85.0611C52.0679 85.4016 52.0249 85.793 52.1209 86.1625C52.2461 87.0172 52.5182 87.8719 52.4794 88.7479C52.456 89.3493 52.2413 89.9281 51.866 90.4018C51.7936 90.5354 51.6921 90.6515 51.5688 90.7416C51.4456 90.8318 51.3037 90.8938 51.1533 90.9231Z" fill="white"/>
<path d="M51.1532 90.923C52.2848 90.1324 52.557 89.0427 52.2935 87.7607C52.1271 87.117 52.0144 86.461 51.9566 85.7991C51.9386 85.5073 52.005 85.2164 52.148 84.9606C52.2911 84.7048 52.5048 84.4946 52.7643 84.3547C53.2767 84.0751 53.8129 83.8406 54.3667 83.6538C55.818 83.0983 56.332 82.2265 56.1419 80.7051C55.9976 79.3649 55.7079 78.0439 55.2781 76.7649C54.7225 75.1435 53.8092 73.6648 52.6045 72.4359C50.6954 70.5128 49.2009 68.2649 47.5423 66.1495C47.1609 65.6423 46.8956 65.059 46.7648 64.4401C46.5131 63.2812 46.6107 62.0746 47.0456 60.9701C47.7453 59.0128 48.5314 57.0854 49.1534 55.0983C49.5803 53.8487 49.5666 52.4929 49.1145 51.2521C47.3177 46.3162 45.5727 41.3632 43.8104 36.4188C43.4333 35.4251 43.1837 34.3885 43.0675 33.3333C42.9885 32.7801 43.0942 32.2165 43.3686 31.7282C43.6431 31.2399 44.0712 30.8536 44.5879 30.6282C45.1152 30.3576 45.7205 30.2745 46.3023 30.3928C46.8842 30.511 47.4073 30.8234 47.7842 31.2777C48.2684 31.8579 48.6549 32.5116 48.9288 33.2136C50.7659 37.4871 52.5973 41.7521 54.4229 46.0085C54.5384 46.3553 54.7285 46.6731 54.9801 46.9401C55.2264 46.3396 55.515 45.757 55.8439 45.1965C56.132 44.7442 56.5106 44.3549 56.9562 44.0526C57.4019 43.7503 57.9054 43.5412 58.4357 43.4384C58.9659 43.3355 59.5119 43.341 60.04 43.4545C60.568 43.568 61.0671 43.787 61.5065 44.0983C61.8718 44.3302 62.1971 44.6187 62.4697 44.953C62.664 45.2094 62.8066 45.1923 63.0398 44.9829C63.5221 44.5429 64.0735 44.1835 64.6725 43.9188C65.1911 43.6521 65.7838 43.5612 66.3596 43.66C66.9354 43.7588 67.4626 44.0419 67.8601 44.4658C68.7788 45.4179 69.5319 46.5139 70.0889 47.7094C70.1529 47.9056 70.2711 48.0803 70.4301 48.2136C71.173 46.6795 71.9202 45.1752 72.6329 43.6495C73.7911 41.2084 74.5994 38.6193 75.0344 35.9572C75.1136 35.2996 75.3511 34.6704 75.7269 34.1224C76.1026 33.5744 76.6058 33.1235 77.1941 32.8077C78.6842 32.0042 80.1787 32.6709 80.4983 34.3205C80.7593 35.546 80.7163 36.8158 80.373 38.0213C79.1161 42.2564 77.8117 46.4743 76.3 50.6282C75.5131 52.8477 75.4109 55.2485 76.0063 57.5256C76.6152 60.2989 76.7972 63.1473 76.5462 65.9743C76.395 68.0384 76.0192 70.0683 75.6823 72.1068C75.2504 74.6282 75.3756 77.1752 75.4361 79.7179C75.475 81.3077 76.1963 82.6367 76.8053 84.0213C76.9004 84.2436 77.1293 84.3119 77.3366 84.4059C78.3343 84.8589 79.3278 85.3376 80.3385 85.7649C80.7704 85.9359 80.7704 86.2948 80.9432 86.6196C81.0296 86.7906 80.8525 86.8547 80.7488 86.9316C80.0826 87.474 79.3798 87.9709 78.6453 88.4188C78.4543 88.4997 78.283 88.6201 78.143 88.7719C78.0029 88.9238 77.8973 89.1035 77.8333 89.2991C77.3489 89.6203 76.8211 89.8721 76.2654 90.047C74.7599 90.6753 73.2093 91.1924 71.6265 91.594C71.4624 91.6407 71.2919 91.6623 71.1212 91.6581C71.0261 91.4401 71.1989 91.3077 71.2939 91.1538C71.5958 90.7054 71.7448 90.1731 71.7191 89.6349C71.6935 89.0967 71.4946 88.5807 71.1514 88.1624C70.9896 87.9158 70.7615 87.7188 70.4928 87.5934C70.2241 87.468 69.9253 87.4193 69.6301 87.4525C69.3349 87.4858 69.055 87.5999 68.8216 87.7819C68.5883 87.9639 68.4109 88.2066 68.3093 88.4829C68.0738 89.0094 68.019 89.5976 68.1531 90.1578C68.2873 90.7181 68.603 91.2195 69.0522 91.5854C69.2164 91.7265 69.4582 91.8034 69.4842 92.0641C67.9775 92.4019 66.4443 92.6106 64.9014 92.688C64.0997 92.7741 63.2925 92.7984 62.4869 92.7607C62.3401 92.547 62.4481 92.3333 62.4869 92.1196C62.5898 91.5959 62.5139 91.0532 62.271 90.5769C61.8779 89.8333 61.2862 89.4957 60.5649 89.6196C60.2284 89.7089 59.926 89.8943 59.6955 90.1528C59.465 90.4112 59.3167 90.7312 59.2691 91.0726C59.2345 91.3951 59.2345 91.7202 59.2691 92.0427C59.2691 92.2265 59.3382 92.4188 59.1913 92.5769C57.959 92.5565 56.7319 92.4134 55.5286 92.1495C55.1705 92.1281 54.8193 92.0427 54.492 91.8974C54.1205 91.5128 54.1421 90.9829 53.9737 90.5213C53.6411 89.6068 53.6627 89.6025 52.8982 90.2265C52.6433 90.4316 52.4187 90.6538 52.1812 90.8931C52.1241 90.9684 52.0522 91.0314 51.9698 91.0784C51.8874 91.1255 51.7962 91.1555 51.7017 91.1666C51.5985 91.1643 51.4968 91.1416 51.4026 91.0998C51.3083 91.0579 51.2236 90.9978 51.1532 90.923Z" fill="#231916"/>
<path d="M72.9093 11.3718C73.285 10.8334 73.6608 10.2992 74.0279 9.75643C74.2741 9.40173 74.5765 9.13677 74.2612 8.57695C73.9459 8.01712 74.3994 7.52994 75.0905 7.65387C75.5656 7.73507 76.0364 7.8419 76.5115 7.93165C76.7534 7.97438 77.0342 7.99148 77.0212 8.31199C77.0082 8.6325 77.0558 9.11541 76.5893 9.27353C75.6779 9.59831 75.4058 10.5043 74.8141 11.1197C74.7277 11.2137 74.7881 11.3505 74.8141 11.4658C74.9695 13.5428 75.1164 15.6197 75.2762 17.6923C75.2718 18.0153 75.375 18.3307 75.5699 18.5898C75.6689 18.7521 75.7157 18.9404 75.7041 19.1297C75.6926 19.3189 75.6232 19.5002 75.5051 19.6496C75.3626 19.9274 75.0732 19.8376 74.8054 19.7863C74.0045 19.6764 73.2111 19.518 72.4298 19.312C71.7776 19.0898 71.1081 19.1282 70.4602 18.9744C69.8123 18.8205 69.104 18.7222 68.4302 18.5898C68.1667 18.5385 67.8255 18.5171 67.8125 18.1624C67.7996 17.8077 67.8125 17.3633 68.2142 17.1881C68.3165 17.1487 68.4051 17.081 68.4695 16.9931C68.5338 16.9052 68.5712 16.8007 68.577 16.6923C69.091 14.0128 69.6007 11.3334 70.1233 8.65387C70.1465 8.57292 70.1471 8.48726 70.1251 8.406C70.103 8.32473 70.0591 8.2509 69.9981 8.19233C69.9214 8.12372 69.8629 8.03765 69.8275 7.94158C69.7921 7.84551 69.781 7.74235 69.7951 7.64105C69.9074 6.78635 70.0326 6.68806 70.8922 6.859C71.7517 7.02994 72.5508 7.17096 73.3757 7.33763C73.6306 7.38891 73.9977 7.33763 74.0107 7.71797C74.0236 8.09831 74.0668 8.57267 73.5787 8.79062C73.4547 8.84019 73.3478 8.92431 73.2712 9.03279C73.1945 9.14127 73.1513 9.26944 73.1468 9.40173C73.0475 10.0342 72.9006 10.6581 72.771 11.2863L72.9093 11.3718Z" fill="#241A17"/>
<path d="M41.8971 15.0257C42.9633 14.5149 44.0578 14.064 45.1754 13.6753C45.2701 13.629 45.3787 13.6187 45.4806 13.6463C45.5824 13.6738 45.6706 13.7374 45.7283 13.8249C45.9097 14.1197 46.13 14.483 45.8924 14.7736C45.6549 15.0642 45.7629 15.2693 45.8622 15.5172C46.4194 16.9103 46.9809 18.2992 47.5294 19.6966C47.6374 19.9702 47.8491 20.2736 47.5597 20.5514C47.4208 20.6816 47.2452 20.7669 47.0562 20.7959C46.8671 20.8249 46.6736 20.7962 46.5015 20.7137C46.3236 20.6487 46.1418 20.5945 45.9572 20.5514C45.917 20.5347 45.8738 20.5261 45.8302 20.5261C45.7866 20.5261 45.7434 20.5347 45.7032 20.5514C45.663 20.5681 45.6266 20.5926 45.596 20.6234C45.5655 20.6542 45.5414 20.6907 45.5253 20.7308C44.7176 22.077 43.3657 22.4402 41.9965 21.6368C41.0679 21.1012 40.2921 20.3409 39.7418 19.4274C38.5108 17.4488 37.7463 15.3462 38.135 12.9701C38.2353 12.3437 38.4888 11.7509 38.8736 11.2437C39.0819 10.9608 39.3464 10.7232 39.651 10.5453C39.9555 10.3675 40.2937 10.2532 40.6445 10.2095C41.0765 10.1496 41.5084 10.3505 41.8064 9.73511C42.0008 9.30775 42.6228 9.42741 42.9165 9.86758C43.3657 10.5343 43.8062 11.2052 44.2382 11.8804C44.4066 12.1454 44.5967 12.4531 44.2684 12.7052C44.1316 12.8505 43.9458 12.9411 43.746 12.96C43.5462 12.9789 43.3464 12.9248 43.1843 12.8078C42.7912 12.5001 42.4284 12.1539 42.0267 11.8633C41.625 11.5727 41.2751 11.2137 40.7784 11.5684C40.2817 11.9231 40.489 12.4231 40.6575 12.8719C40.9901 13.765 41.3615 14.6454 41.7157 15.53C41.8885 15.624 41.8928 15.8163 41.9705 15.9573C42.5321 16.9402 42.8344 18.03 43.3052 19.0556C43.4415 19.5164 43.6578 19.9503 43.9445 20.3377C44.1302 20.1496 44.0308 19.9702 43.9704 19.812C43.5946 18.7864 43.1756 17.7821 42.761 16.7693C42.7273 16.6633 42.6715 16.5655 42.597 16.4823C42.5226 16.3991 42.4313 16.3323 42.329 16.2864C42.2265 16.2433 42.1346 16.1785 42.06 16.0965C41.9854 16.0146 41.9298 15.9175 41.8971 15.812C41.8086 15.5572 41.8086 15.2805 41.8971 15.0257Z" fill="#241A17"/>
<path d="M87.4349 92.5812C88.5406 92.3676 89.2662 92.8676 89.9055 93.624C90.1945 94.0847 90.6176 94.4482 91.1192 94.6667C91.6764 94.859 91.6807 95.359 91.2358 95.7436L90.372 96.4744C89.8061 96.9445 89.3656 96.9701 88.8257 96.4488C88.2858 95.9274 87.8409 95.3505 87.3571 94.7949C87.275 94.7052 87.2016 94.6112 87.1239 94.5214C86.9338 94.2949 86.6919 93.9915 86.4112 94.2565C86.1304 94.5214 86.5537 94.6624 86.6747 94.8248C87.0029 95.2522 87.383 95.6795 87.7415 96.0812C87.9382 96.3517 88.2188 96.5513 88.5406 96.6496C88.6698 96.6712 88.7893 96.7313 88.8831 96.8219C88.9769 96.9125 89.0405 97.0292 89.0654 97.1566C89.0902 97.2839 89.0752 97.4157 89.0224 97.5343C88.9695 97.653 88.8813 97.7529 88.7695 97.8206C88.2253 98.2906 87.6638 98.7479 87.1195 99.2223C86.9079 99.406 86.6876 99.5513 86.4328 99.3505C86.1779 99.1496 85.8713 98.953 86.0009 98.5599C86.033 98.4634 86.035 98.3595 86.0065 98.2619C85.9779 98.1643 85.9203 98.0775 85.841 98.0129C84.3725 96.3035 82.9054 94.6012 81.4397 92.906C81.3903 92.8173 81.3106 92.7488 81.2149 92.7128C81.1191 92.6768 81.0136 92.6756 80.9171 92.7094C80.537 92.8206 80.3858 92.4787 80.2303 92.2223C80.1976 92.1715 80.1753 92.1149 80.1647 92.0556C80.1542 91.9963 80.1556 91.9355 80.1688 91.8767C80.182 91.818 80.2069 91.7624 80.2419 91.7131C80.2769 91.6639 80.3214 91.622 80.3728 91.5898C81.2367 90.8505 82.1006 90.0812 83.0249 89.3718C83.4869 89.0358 84.0429 88.85 84.6162 88.84C85.1895 88.8301 85.7518 88.9965 86.2255 89.3163C86.7371 89.6102 87.1373 90.0617 87.3651 90.6019C87.5928 91.1421 87.6355 91.7413 87.4867 92.3077C87.4781 92.3761 87.4651 92.4445 87.4349 92.5812Z" fill="#241917"/>
<path d="M56.2023 17.1324C56.2325 18.9102 56.4831 18.5555 54.764 18.9017C53.6151 19.1324 52.4618 19.329 51.3086 19.5213C51.0408 19.5683 50.6952 19.7094 50.5354 19.3461C50.3756 18.9829 50.259 18.5769 50.6823 18.2863C50.7739 18.2244 50.8419 18.134 50.8756 18.0295C50.9093 17.9249 50.9066 17.8122 50.868 17.7094C50.3583 15.0199 49.8602 12.3376 49.3735 9.66236C49.326 9.38031 49.2526 9.21365 48.9416 9.11963C48.4794 8.98288 48.5097 8.55125 48.5097 8.17946C48.5097 7.80766 48.812 7.80339 49.0496 7.75211C50.4879 7.48715 51.9349 7.24783 53.3689 6.97433C53.4487 6.94557 53.5338 6.93402 53.6184 6.94045C53.7031 6.94688 53.7854 6.97114 53.8599 7.0116C53.9343 7.05207 53.9992 7.1078 54.05 7.17508C54.1009 7.24235 54.1367 7.31961 54.155 7.40168C54.3407 7.9145 54.5567 8.4145 54.7553 8.92305C54.872 9.20937 55.0447 9.50424 54.6733 9.73074C54.4884 9.84167 54.2708 9.88689 54.0564 9.85891C53.842 9.83094 53.6436 9.73146 53.4941 9.57689C53.2998 9.31621 53.1486 9.02561 52.9672 8.75638C52.8549 8.58971 52.7382 8.36322 52.4877 8.46151C52.2372 8.5598 52.4186 8.78202 52.4445 8.94014C52.6044 9.86322 52.7771 10.7863 52.9499 11.7094C52.9758 11.8376 52.9153 12.0427 53.1745 12.0299C53.4337 12.0171 53.4423 11.8589 53.4466 11.6795C53.4509 11.5 53.4466 11.406 53.4466 11.2521C53.4466 10.7521 53.7922 10.7051 54.1809 10.6581C54.5696 10.6111 54.7769 10.7777 54.8417 11.1709C54.967 11.9102 55.1225 12.6453 55.2434 13.3846C55.2996 13.7094 55.3428 14.0555 54.8849 14.1538C54.4271 14.2521 54.047 14.2948 53.8829 13.7265C53.8561 13.6456 53.8229 13.567 53.7835 13.4914C53.7101 13.3376 53.6539 13.1666 53.4164 13.2436C53.1788 13.3205 53.2738 13.4957 53.2954 13.6282C53.52 14.8675 53.7518 16.1068 53.9908 17.3461C54.0168 17.4615 53.952 17.6581 54.1636 17.6624C54.2071 17.6671 54.2511 17.6632 54.293 17.6508C54.3349 17.6385 54.3739 17.618 54.4077 17.5905C54.4415 17.563 54.4695 17.5291 54.4898 17.4908C54.5102 17.4525 54.5227 17.4106 54.5264 17.3675C54.5912 16.9786 54.6776 16.594 54.7208 16.2051C54.7246 16.098 54.7502 15.9928 54.7961 15.8958C54.842 15.7987 54.9072 15.7119 54.9879 15.6404C55.0686 15.569 55.1631 15.5144 55.2656 15.48C55.3681 15.4456 55.4767 15.432 55.5846 15.4401C55.982 15.4145 56.2109 15.5769 56.2023 16C56.198 16.4145 56.2023 16.7735 56.2023 17.1324Z" fill="#241A17"/>
<path d="M57.446 102.137C57.7865 102.4 58.041 102.756 58.1778 103.161C58.3145 103.566 58.3274 104.002 58.2149 104.415C58.1501 104.782 58.0767 105.154 57.9989 105.517C57.9693 105.605 57.9594 105.699 57.9698 105.791C57.9803 105.883 58.0108 105.972 58.0594 106.051C58.1288 106.187 58.1579 106.339 58.1434 106.49C58.1289 106.642 58.0713 106.786 57.9773 106.906C57.8218 107.171 57.5454 107.047 57.3165 107L56.3014 106.808C55.4376 106.645 55.1352 106.231 55.295 105.325C55.4246 104.586 55.5801 103.851 55.727 103.111C55.7542 102.962 55.7686 102.81 55.7702 102.658C55.7702 102.615 55.7614 102.572 55.7443 102.533C55.7272 102.493 55.7022 102.457 55.6707 102.427C55.6393 102.397 55.602 102.374 55.5612 102.358C55.5204 102.343 55.4769 102.336 55.4333 102.338C55.2173 102.338 55.2821 102.521 55.2562 102.641C55.118 103.325 54.9797 104.013 54.8545 104.701C54.816 104.82 54.8023 104.946 54.8142 105.071C54.826 105.196 54.8633 105.317 54.9236 105.427C54.9899 105.565 55.0146 105.72 54.9947 105.871C54.9748 106.023 54.9111 106.165 54.8113 106.282C54.6212 106.539 54.3491 106.436 54.0943 106.385L52.0124 105.996C51.7705 105.953 51.5027 105.91 51.4984 105.603C51.4941 105.295 51.4552 104.902 51.8137 104.748C51.9171 104.71 52.0069 104.642 52.0722 104.554C52.1374 104.466 52.1752 104.361 52.1809 104.252C52.6041 102.044 53.0361 99.8348 53.4766 97.624C53.5069 97.4702 53.5285 97.3206 53.3643 97.1967C52.9324 96.9189 53.1311 96.5642 53.2736 96.2437C53.4162 95.9232 53.7358 95.9958 54.0338 96.0514C54.9797 96.2437 55.93 96.4103 56.8759 96.5898C57.4987 96.667 58.0762 96.9522 58.5129 97.3982C58.9496 97.8443 59.2193 98.4245 59.2774 99.0428C59.3768 100.141 59.0571 101.474 57.5886 102.009C57.5355 102.045 57.4876 102.088 57.446 102.137Z" fill="#241A17"/>
<path d="M61.9858 18.3505H59.7096C59.4677 18.3505 59.174 18.3847 59.1178 18.077C59.0617 17.7693 58.9321 17.3163 59.3295 17.1069C59.4651 17.039 59.5747 16.9294 59.6417 16.7944C59.7087 16.6595 59.7295 16.5067 59.7009 16.359C59.6491 13.6439 59.6045 10.9374 59.567 8.23936C59.5813 8.14764 59.565 8.05384 59.5205 7.97212C59.4761 7.89039 59.406 7.82519 59.3208 7.78637C59.1408 7.66223 59.008 7.4819 58.9438 7.27426C58.8796 7.06661 58.8876 6.84365 58.9667 6.64107C59.0084 6.56615 59.0718 6.50533 59.1488 6.46647C59.2258 6.42762 59.3128 6.41252 59.3986 6.42312L64.0548 6.3462C64.1237 6.33854 64.1934 6.34475 64.2598 6.36446C64.3262 6.38417 64.3879 6.41697 64.4412 6.46089C64.4945 6.5048 64.5382 6.55893 64.5698 6.62001C64.6013 6.68108 64.6201 6.74785 64.6249 6.81628C64.7458 7.38466 64.8797 7.94876 65.0007 8.52568C65.0612 8.82056 65.1907 9.14962 64.7718 9.30346C64.5704 9.37943 64.3489 9.38573 64.1434 9.32132C63.938 9.25692 63.7606 9.12561 63.6401 8.94876C63.4846 8.64534 63.3723 8.32056 63.2341 8.01286C63.152 7.84192 63.0613 7.63252 62.8238 7.7009C62.5862 7.76927 62.7071 7.9915 62.7071 8.12825C62.7071 9.06842 62.7071 10.0086 62.7417 10.9445C62.7417 11.0898 62.6337 11.3206 62.9274 11.3291C63.2211 11.3376 63.2125 11.1582 63.2514 10.9573C63.4069 10.1539 63.5321 10.0599 64.2405 10.1368C64.5256 10.171 64.6724 10.2992 64.6724 10.5941C64.6724 11.4488 64.707 12.3035 64.7199 13.1582C64.7199 13.4744 64.5947 13.6923 64.2491 13.7137C63.9036 13.7351 63.5321 13.7778 63.3853 13.3505C63.3252 13.1745 63.2775 12.9946 63.2427 12.812C63.2401 12.7782 63.2305 12.7453 63.2145 12.7153C63.1986 12.6853 63.1765 12.6589 63.1498 12.6376C63.1231 12.6164 63.0922 12.6008 63.0592 12.5919C63.0262 12.5829 62.9916 12.5807 62.9577 12.5855C62.7374 12.5855 62.759 12.7308 62.759 12.8676L62.8238 16.8077C62.8238 16.9146 62.7979 17.0641 62.9793 17.0812C63.0564 17.0975 63.1369 17.0846 63.2048 17.045C63.2728 17.0055 63.3233 16.9421 63.3464 16.8676C63.4846 16.4829 63.6099 16.0941 63.7481 15.7094C63.7746 15.584 63.8323 15.4671 63.916 15.3693C63.9997 15.2716 64.1068 15.196 64.2275 15.1496C64.9316 14.9274 65.303 15.218 65.2166 15.9359C65.1432 16.53 65.0482 17.1197 64.9704 17.7094C64.9739 17.7989 64.9569 17.888 64.9209 17.9702C64.8848 18.0523 64.8306 18.1254 64.7622 18.1841C64.6938 18.2427 64.613 18.2854 64.5257 18.3091C64.4384 18.3327 64.3468 18.3366 64.2578 18.3205C63.4976 18.2906 62.7374 18.3205 61.9815 18.3205L61.9858 18.3505Z" fill="#241A17"/>
<path d="M84.8736 14.8632L86.3119 13.1324C86.382 13.0688 86.4289 12.984 86.4453 12.8913C86.4617 12.7986 86.4467 12.7031 86.4026 12.6196C86.3402 12.4879 86.3142 12.3423 86.3271 12.1975C86.34 12.0526 86.3914 11.9137 86.476 11.7948C86.491 11.7269 86.5225 11.6637 86.5677 11.6105C86.613 11.5574 86.6707 11.516 86.7358 11.4899C86.8009 11.4638 86.8714 11.4538 86.9413 11.4608C87.0112 11.4677 87.0783 11.4915 87.1369 11.5299C87.517 11.6923 87.9014 11.8419 88.2815 11.9957C88.5233 12.094 88.8386 12.1752 88.7998 12.4829C88.7609 12.7906 88.6875 13.2179 88.3247 13.3376C87.97 13.4743 87.6678 13.718 87.4608 14.0342C87.03 14.6108 86.5701 15.1656 86.083 15.6966C84.6187 17.1581 83.8974 19.0128 83.1588 20.8675C83.1121 20.9477 83.0951 21.0416 83.1109 21.1329C83.1267 21.2242 83.1742 21.3072 83.2452 21.3675C83.6771 21.7607 83.3488 22.1367 83.1631 22.4786C82.9774 22.8205 82.6664 22.6538 82.3943 22.5427C81.457 22.1581 80.5197 21.7735 79.5824 21.3974C79.3319 21.2948 79.0512 21.1795 79.1289 20.8675C79.2067 20.5555 79.2801 20.0555 79.7552 20.0128C80.118 20.0128 80.2174 19.8077 80.321 19.5427C80.4176 19.2502 80.5345 18.9646 80.6709 18.688C81.4013 17.1992 81.8116 15.5767 81.876 13.923C81.9321 13.2265 82.0142 12.5342 82.1135 11.8419C82.1957 11.4789 82.1452 11.0988 81.971 10.7692C81.7766 10.4273 82.066 10.0812 82.2561 9.79484C82.4461 9.50852 82.688 9.688 82.9126 9.79484C83.6771 10.1068 84.4416 10.4102 85.2018 10.735C85.4394 10.8376 85.8108 10.8589 85.7979 11.2094C85.8136 11.3878 85.782 11.5671 85.7062 11.7297C85.6305 11.8924 85.5132 12.0326 85.3659 12.1367C85.253 12.1921 85.1592 12.2792 85.0962 12.3872C85.0331 12.4951 85.0038 12.6191 85.0118 12.7436C84.9513 13.4359 84.8692 14.1324 84.7958 14.8248L84.8736 14.8632Z" fill="#241A17"/>
<path d="M40.1089 93.5898C40.2645 93.5589 40.4255 93.5678 40.5766 93.6157C40.7278 93.6635 40.8641 93.7487 40.9727 93.8633C41.5472 94.3291 42.1303 94.7821 42.7004 95.2436C42.8862 95.3932 43.1324 95.5556 42.9898 95.8333C42.8473 96.1111 42.6918 96.4573 42.3031 96.4274C42.0137 96.4017 41.9057 96.5556 41.7675 96.7265C40.9814 97.7009 40.1924 98.6724 39.4005 99.641C39.2321 99.8462 39.0766 100.128 38.7397 100.026C38.5798 99.9837 38.4378 99.8922 38.3344 99.7645C38.231 99.6368 38.1717 99.4797 38.1652 99.3162C38.1306 98.8889 38.0054 98.6667 37.4568 98.6496C36.269 98.6154 35.4657 97.4487 35.6125 96.1453C35.8328 94.1752 36.8737 92.641 38.2775 91.3163C39.0662 90.5423 40.0711 90.0198 41.1628 89.8163C41.6712 89.7037 42.2031 89.7634 42.6731 89.9858C43.143 90.2082 43.5238 90.5805 43.7543 91.0427C43.8321 91.1795 43.8493 91.265 44.074 91.2436C44.6657 91.188 44.9724 91.6966 44.7002 92.2351C44.4281 92.7735 44.0826 93.4103 43.7759 94.0043C43.6507 94.2479 43.4952 94.4744 43.1885 94.3718C42.8818 94.2692 42.5795 94.0727 42.614 93.6795C42.6486 93.2863 42.7652 92.9103 42.7998 92.5214C42.8343 92.1325 43.033 91.6111 42.5277 91.3761C42.0223 91.141 41.7502 91.6069 41.4824 91.9145C41.0332 92.4445 40.6013 93 40.1089 93.5898Z" fill="#241A17"/>
<path d="M43.7065 101.509C43.7388 101.06 43.8669 100.623 44.0823 100.227L46.5313 94.9958C46.6021 94.8926 46.6424 94.772 46.6477 94.6475C46.6531 94.5229 46.6232 94.3994 46.5616 94.2907C46.3715 93.9702 46.6177 93.6667 46.8207 93.436C47.0237 93.2052 47.2527 93.3206 47.4773 93.436C48.3109 93.8633 49.205 94.1924 50.017 94.6582C50.4725 94.882 50.943 95.0748 51.4251 95.2351C51.6583 95.3249 51.9045 95.4531 51.8225 95.7479C51.7404 96.0428 51.6929 96.4232 51.343 96.4702C50.9932 96.5172 50.9111 96.7308 50.7901 96.9787C49.9263 98.8505 49.0624 100.722 48.1986 102.586C48.0281 103.06 47.6847 103.454 47.2357 103.692C46.7867 103.929 46.2645 103.991 45.7712 103.868C44.5229 103.568 43.7152 102.709 43.7065 101.509Z" fill="#241917"/>
<path d="M77.4403 103.47C77.6778 102.949 77.3452 102.453 77.1897 101.944C76.6282 100.068 76.0322 98.2007 75.4404 96.3332C75.3627 96.0811 75.3152 95.8375 74.948 95.7563C74.5809 95.6751 74.5161 95.329 74.5161 95.0127C74.5161 94.6965 74.7537 94.6281 74.948 94.5256C75.488 94.2563 76.0279 93.9956 76.5721 93.7392C77.1163 93.4828 77.3236 93.4956 77.6951 94.0298C78.7231 95.4828 79.7381 96.9486 80.7575 98.4102C81.1678 98.9999 81.5825 99.5854 81.9928 100.179C82.157 100.461 82.4128 100.679 82.7184 100.799C82.8588 100.866 82.9764 100.972 83.0569 101.104C83.1374 101.236 83.1774 101.389 83.1719 101.543C83.2151 101.855 82.9387 101.923 82.74 102.026L80.8395 102.953C80.6279 103.055 80.4076 103.252 80.1787 103.034C80.0499 102.937 79.9569 102.801 79.914 102.646C79.8711 102.492 79.8806 102.328 79.9411 102.179C79.99 102.091 80.0085 101.99 79.9937 101.89C79.9789 101.791 79.9316 101.699 79.8591 101.628C79.7468 101.504 79.7208 101.201 79.479 101.303C79.1664 101.386 78.8825 101.551 78.6583 101.782C78.6294 101.851 78.6161 101.925 78.6195 102C78.6229 102.074 78.6428 102.147 78.6778 102.213C78.7129 102.279 78.7622 102.337 78.8223 102.382C78.8823 102.427 78.9517 102.459 79.0254 102.474C79.1701 102.495 79.3059 102.556 79.4174 102.65C79.5289 102.744 79.6116 102.866 79.6561 103.004C79.6939 103.056 79.7184 103.117 79.7276 103.18C79.7367 103.244 79.7302 103.308 79.7085 103.369C79.6869 103.429 79.6508 103.484 79.6033 103.527C79.5558 103.571 79.4983 103.603 79.4358 103.62C79.0773 103.782 78.7231 103.966 78.3646 104.132C77.7469 104.423 77.4143 104.184 77.4403 103.47Z" fill="#241A17"/>
<path d="M68.4602 97.8633C68.4818 98.218 68.5077 98.5727 68.5207 98.9231C68.5207 99.389 68.201 99.4744 67.8425 99.5385C67.484 99.6026 67.294 99.4231 67.2378 99.0813C67.1428 98.5428 67.0435 98.0086 66.9441 97.4701C66.921 97.3999 66.9143 97.3254 66.9246 97.2522C66.9349 97.179 66.9619 97.1091 67.0035 97.0478C67.0451 96.9864 67.1002 96.9352 67.1648 96.8981C67.2294 96.861 67.3016 96.8388 67.3761 96.8334L71.8465 95.7778C71.9041 95.7606 71.9647 95.7554 72.0245 95.7627C72.0842 95.77 72.1417 95.7896 72.1934 95.8202C72.245 95.8508 72.2897 95.8917 72.3244 95.9403C72.3591 95.989 72.3832 96.0442 72.3951 96.1026C72.5678 96.6539 72.7406 97.2052 72.9177 97.7565C73.017 98.0642 72.9522 98.2992 72.6153 98.4018C72.2784 98.5043 71.9458 98.5984 71.7256 98.1796C71.6489 97.9433 71.5172 97.7281 71.3412 97.5513C71.3463 97.6944 71.3593 97.837 71.38 97.9787C71.8551 99.973 72.3331 101.979 72.814 103.996C72.8242 104.145 72.876 104.289 72.9636 104.411C73.0513 104.533 73.1714 104.629 73.3107 104.688C73.6563 104.825 73.639 105.218 73.6217 105.543C73.6044 105.868 73.3323 105.85 73.125 105.902C72.3562 106.086 71.583 106.256 70.8142 106.436C70.5766 106.492 70.3132 106.603 70.162 106.333C70.0108 106.064 69.864 105.701 70.1231 105.427C70.2013 105.341 70.2526 105.234 70.271 105.12C70.2894 105.005 70.274 104.888 70.2268 104.782C69.6869 102.543 69.1599 100.308 68.6286 98.0684C68.6286 98.0086 68.5855 97.9488 68.5639 97.889L68.4602 97.8633Z" fill="#241A17"/>
<path d="M63.5624 107.265C63.1305 107.265 62.6985 107.265 62.2666 107.265C62.0463 107.265 61.7699 107.303 61.7137 107.017C61.6576 106.731 61.5583 106.308 61.9038 106.137C62.2493 105.966 62.2234 105.744 62.2148 105.474L62.0463 98.9829C62.0659 98.849 62.0428 98.7123 61.98 98.592C61.9173 98.4717 61.8182 98.3738 61.6965 98.312C61.3207 98.1283 61.4459 97.7436 61.4805 97.4573C61.5151 97.171 61.7785 97.1795 62.0118 97.171C62.8756 97.1453 63.7654 97.1112 64.6422 97.0898C64.8841 97.0898 65.1735 97.0513 65.2167 97.3761C65.2599 97.7009 65.3938 98.077 65.0266 98.2308C64.7329 98.3718 64.7243 98.5556 64.7286 98.7992C64.7891 101.03 64.8481 103.262 64.9057 105.496C64.9057 105.697 64.9445 105.876 65.1519 105.957C65.4283 106.064 65.4585 106.308 65.4845 106.543C65.5406 107.047 65.411 107.192 64.9014 107.201H63.5581L63.5624 107.265Z" fill="#241A17"/>
<path d="M69.4925 92.0171C68.8289 91.6914 68.3186 91.1239 68.0689 90.4338C67.8192 89.7437 67.8496 88.9847 68.1536 88.3163C68.2706 88.0337 68.4603 87.7864 68.7038 87.5987C68.9473 87.411 69.2361 87.2896 69.5417 87.2464C69.8472 87.2032 70.1589 87.2398 70.4457 87.3525C70.7326 87.4652 70.9847 87.6501 71.177 87.8889C71.6514 88.4032 71.9101 89.0769 71.9004 89.773C71.8908 90.4692 71.6136 91.1356 71.1252 91.6368C70.604 91.8458 70.0533 91.9741 69.4925 92.0171Z" fill="white"/>
<path d="M59.2085 92.5299C59.1326 92.165 59.0849 91.795 59.0659 91.423C59.1005 90.3247 59.8347 89.4017 60.7375 89.3504C61.6402 89.2991 62.5429 90.1324 62.7114 91.2179C62.7682 91.7265 62.6939 92.2411 62.4954 92.7136C61.3963 92.7615 60.2951 92.7 59.2085 92.5299Z" fill="white"/>
<path d="M51.7188 91.1025C52.2673 90.4658 52.9411 89.9529 53.5372 89.3632C53.7272 89.1794 53.7747 89.2948 53.8352 89.4786C54.118 90.246 54.3432 91.0331 54.509 91.8333C53.5508 91.7105 52.6128 91.4648 51.7188 91.1025Z" fill="white"/>
<path d="M41.8967 15.9617C41.7976 15.8385 41.7349 15.6906 41.7153 15.5343C41.8622 15.3976 41.6937 15.1411 41.9054 15.03C41.8653 15.3085 41.898 15.5924 42.0004 15.8548C41.9572 15.8933 41.9442 15.9531 41.8967 15.9617Z" fill="#BFC3B7"/>
<path d="M69.5747 33.1581C68.659 34.124 67.7304 35.1539 66.737 36.1197C66.5158 36.2826 66.3489 36.5071 66.2573 36.7643C66.1657 37.0216 66.1538 37.3001 66.223 37.5641C66.5296 38.9402 66.724 40.3419 66.9745 41.7906C65.5448 41.0513 64.1713 40.3462 62.8064 39.6197C62.6879 39.5423 62.5489 39.5011 62.4069 39.5011C62.2649 39.5011 62.1259 39.5423 62.0074 39.6197C60.6511 40.3547 59.2733 41.0513 57.8263 41.7992C58.0293 40.6154 58.2237 39.4958 58.4137 38.3804C58.4238 38.2271 58.4499 38.0753 58.4915 37.9274C58.8759 37.0129 58.4353 36.4445 57.7745 35.8334C56.8588 34.9787 56.0468 34.0214 55.2563 33.1539C56.2498 33.0086 57.416 32.7607 58.5865 32.6923C59.675 32.6282 60.3617 32.265 60.7461 31.2009C61.1306 30.1368 61.7957 29.0342 62.3745 27.8718C62.6639 28.4402 62.923 28.9317 63.1692 29.4317C63.6012 30.3163 64.0547 31.2009 64.465 32.094C64.5072 32.2128 64.5837 32.3166 64.6851 32.3926C64.7865 32.4686 64.9082 32.5134 65.0352 32.5214C66.3698 32.6966 67.6958 32.9017 69.0262 33.094C69.2767 33.1026 69.4927 33.1453 69.5747 33.1581Z" fill="#241A17"/>
<path d="M88.1132 61.8675L84.5671 61.0128C84.5671 60.7479 84.7572 60.5855 84.8781 60.4273C86.2862 58.3632 87.6856 56.2906 89.1974 54.2863C89.3657 54.041 89.599 53.8462 89.8717 53.7233C90.1445 53.6005 90.4461 53.5543 90.7437 53.5897C92.2065 53.6814 93.6548 53.9307 95.063 54.3333L90.843 58.8291L94.6181 59.7393C93.5512 60.5641 92.5491 61.3376 91.5428 62.1068L84.2691 67.7009C84.1309 67.8034 84.0013 68.0727 83.7594 67.8248C83.5175 67.5769 83.8156 67.4573 83.9149 67.3248C85.2841 65.5342 86.6792 63.735 88.1132 61.8675Z" fill="#241A17"/>
<path d="M41.3744 61.0043L37.7937 61.8163C39.15 63.8761 40.9943 65.5855 42.0266 67.8334L41.9316 67.9231L31.2975 59.765L35.0337 58.8419L30.8872 54.4146C32.3385 54.0385 33.699 53.5001 35.1849 53.5941C35.5032 53.6353 35.8101 53.7389 36.0874 53.8989C36.3648 54.0589 36.6071 54.272 36.8003 54.5257C37.6195 55.5151 38.3796 56.551 39.0765 57.6283C39.8367 58.7223 40.6012 59.8291 41.3744 61.0043Z" fill="#241A17"/>
<path d="M89.3311 72.564C88.1822 72.9914 87.111 73.3931 86.0312 73.7649C85.6511 73.8931 85.5647 73.9913 85.8757 74.3119C86.1867 74.6324 86.5279 75.0939 86.9037 75.5512L83.9536 76.0341C82.7485 76.2307 81.5434 76.4315 80.334 76.6153C80.1526 76.6452 79.9021 76.7905 79.8114 76.4871C79.7207 76.1837 80.0058 76.1794 80.1526 76.1067C80.9215 75.7307 81.6989 75.3688 82.485 75.0213C82.7874 74.8888 82.917 74.7905 82.606 74.5084C82.295 74.2264 81.9581 73.799 81.6298 73.4486C81.5002 73.3076 81.4139 73.2093 81.6601 73.0811C82.9558 72.4272 84.1912 71.6366 85.5776 71.1452C85.8408 71.0378 86.1263 70.995 86.4098 71.0202C86.6934 71.0455 86.9665 71.1383 87.206 71.2905C87.8884 71.705 88.5752 72.111 89.3311 72.564Z" fill="#241A17"/>
<path d="M42.5793 75.6409L44.0954 74.0426L40.856 72.8418C41.3195 72.2603 41.8583 71.7416 42.4584 71.2991C42.7245 71.1199 43.0339 71.014 43.355 70.9922C43.676 70.9705 43.9972 71.0336 44.2855 71.1751C45.332 71.6543 46.3324 72.2264 47.2744 72.8845C48.0735 73.3931 48.0691 73.3973 47.4428 74.1025C46.7518 74.876 46.7518 74.876 47.6674 75.3119C48.2549 75.5939 48.8423 75.876 49.4254 76.1666C49.5766 76.2435 49.8357 76.2606 49.7623 76.5341C49.6889 76.8076 49.4383 76.6794 49.2828 76.658C47.391 76.3802 45.5035 76.0897 43.616 75.8033L42.5793 75.6409Z" fill="#241A17"/>
<path d="M51.2004 28.6708C52.5481 28.6708 53.0361 29.4529 52.4962 30.6367C52.2918 31.1083 51.9833 31.5288 51.5935 31.8674C51.5434 31.9203 51.4829 31.9625 51.4156 31.9914C51.3484 32.0202 51.2759 32.0351 51.2026 32.0351C51.1293 32.0351 51.0568 32.0202 50.9896 31.9914C50.9223 31.9625 50.8618 31.9203 50.8117 31.8674C50.2041 31.3754 49.7987 30.681 49.6714 29.9144C49.626 29.6763 49.6716 29.4299 49.7993 29.2231C49.9269 29.0162 50.1276 28.8636 50.3625 28.7948C50.6304 28.6975 50.9155 28.6554 51.2004 28.6708Z" fill="#050101"/>
<path d="M74.5159 28.6709C75.8549 28.6709 76.3603 29.4401 75.8117 30.6453C75.6142 31.0813 75.3342 31.4758 74.9867 31.8077C74.9306 31.8787 74.8588 31.9362 74.7769 31.9757C74.6949 32.0152 74.6049 32.0358 74.5138 32.0358C74.4226 32.0358 74.3326 32.0152 74.2507 31.9757C74.1687 31.9362 74.097 31.8787 74.0408 31.8077C73.5161 31.3304 73.1552 30.7029 73.0085 30.0128C72.853 29.1965 73.4275 28.6709 74.5159 28.6709Z" fill="#050101"/>
<path d="M63.4934 60.1324C63.743 59.8826 63.9285 59.5772 64.0345 59.2419C64.1404 58.9066 64.1637 58.5511 64.1024 58.2051C64.1006 58.0158 64.053 57.8297 63.9636 57.6624C63.8742 57.4951 63.7455 57.3515 63.5884 57.2435C62.8455 56.9145 63.0226 56.3461 63.0744 55.7991C63.2126 54.4572 63.3638 53.1196 63.5063 51.7777C63.5191 51.6784 63.5191 51.5779 63.5063 51.4786C63.096 49.3803 63.7309 47.4999 64.7589 45.7221C65.7869 43.9444 67.2166 44.0982 68.2834 45.641C69.3503 47.1837 70.037 49.0127 69.3416 50.9999C69.2898 51.158 69.2941 51.2478 69.4539 51.329C69.6829 51.4358 69.7174 51.2435 69.7908 51.1281C70.5467 49.9486 71.3026 48.7692 72.0498 47.5769C72.5111 46.7311 73.1611 46.0003 73.9503 45.4401C74.0284 45.4025 74.0911 45.3396 74.128 45.2619C74.165 45.1841 74.1739 45.0962 74.1533 45.0127C73.8034 43.1281 74.2397 41.4957 75.8551 40.3119C75.9976 40.2093 76.0408 40.1068 75.989 39.9743C75.4707 38.6623 76.0279 37.4615 76.3864 36.2435C76.5635 35.641 76.7924 35.0512 76.9997 34.4529C77.0296 34.3555 77.0686 34.2611 77.1163 34.1709C77.4014 33.7179 77.6994 33.188 78.2998 33.2307C78.6053 33.2553 78.8972 33.3662 79.1407 33.5503C79.3843 33.7344 79.5691 33.984 79.6733 34.2692C80.0817 35.2014 80.1519 36.2446 79.872 37.2221C78.4121 42.0655 76.9723 46.9002 75.5527 51.7264C75.4145 52.188 75.2331 52.2521 74.8444 52.0469C74.6751 51.9668 74.5005 51.8983 74.3218 51.8418C74.555 53.0469 74.7796 54.1965 75.0042 55.3504C75.6521 58.658 76.1315 61.9786 75.9976 65.3632C75.9031 68.3189 75.2083 71.2257 73.9546 73.9102C73.9978 73.9102 74.028 73.9529 74.054 73.9486C74.6716 73.8204 74.6716 73.8162 74.6716 74.4187C74.6716 76.6751 74.6716 78.9301 74.6716 81.1837C74.6911 81.4069 74.6333 81.63 74.5078 81.8163C74.3822 82.0027 74.1963 82.1413 73.9805 82.2093L67.2209 84.6025C67.1592 84.6093 67.0969 84.6093 67.0352 84.6025C67.182 83.2435 67.3289 81.9102 67.4671 80.5726L67.7133 78.3845C67.7133 78.1922 67.7608 78.0213 67.4671 77.9871C67.1734 77.9529 67.195 78.1623 67.1734 78.3333C66.9358 80.1965 66.6896 82.0598 66.478 83.923C66.4305 84.3504 66.3398 84.6495 65.8128 84.6794C65.4111 84.7008 64.9058 85.0427 64.638 84.8375C64.3702 84.6324 64.5602 84.0683 64.5559 83.6623C64.5559 82.3803 64.5559 81.1367 64.5559 79.8717C64.5559 79.6922 64.6207 79.4828 64.3054 79.4743C63.9901 79.4657 64.0894 79.6922 64.0765 79.8333C63.9339 81.158 63.8216 82.4828 63.8087 83.8162C63.8087 84.8333 63.3767 85.2606 62.366 85.3717C61.0702 85.5127 59.7745 85.658 58.4787 85.829C58.1936 85.8632 58.077 85.829 58.0813 85.5213C58.1044 82.923 58.1173 80.3261 58.1202 77.7307C58.1192 77.5681 58.1543 77.4074 58.2229 77.2597C58.2916 77.112 58.3922 76.981 58.5176 76.876L59.2648 76.235C55.3775 74.0213 52.7859 70.6153 50.3325 67.0298C48.6048 64.4657 48.4148 61.7777 49.2484 58.9102C49.8109 57.1205 50.5562 55.3922 51.4728 53.7521C51.5826 53.579 51.7348 53.4362 51.9153 53.3368C52.0957 53.2375 52.2986 53.1848 52.5051 53.1837C52.5833 53.1834 52.6605 53.1671 52.7319 53.1358C52.8033 53.1045 52.8674 53.0589 52.9202 53.0019C52.9729 52.9449 53.0132 52.8777 53.0384 52.8045C53.0636 52.7314 53.0732 52.6539 53.0666 52.5769C53.1617 51.3247 53.3431 51.2093 54.5957 51.4914C56.4789 51.9187 58.4139 52.064 60.3014 52.4529C60.9464 52.575 61.5611 52.8204 62.1112 53.1751C62.6857 53.5598 62.8023 53.8076 62.6425 54.4572C62.4648 55.3387 61.9434 56.1156 61.1912 56.6196C59.5671 57.7008 57.7703 57.9016 55.8871 57.7179L55.2176 57.658C55.0967 57.6196 54.9758 57.5598 54.8635 57.658L56.5912 58.8033L52.9889 62.7264L54.2588 62.8674C54.4834 62.8931 54.5395 62.6965 54.6345 62.5683C55.0779 61.9525 55.5798 61.3801 56.1333 60.8589C56.4476 60.5345 56.8608 60.3212 57.3095 60.2517C57.7582 60.1822 58.2175 60.2604 58.6169 60.4743C60.945 61.6751 63.0657 63.1495 64.5991 65.3119C65.1961 66.1871 65.617 67.1679 65.8387 68.2008C66.0131 67.3704 65.8989 66.506 65.5148 65.7478C65.1262 64.9302 64.6681 64.1468 64.1456 63.4059C63.9296 63.0939 63.8907 62.8974 64.2276 62.6239C64.7401 62.1402 65.1925 61.598 65.5752 61.0085C66.0141 60.3493 66.6244 59.8194 67.3418 59.4743C67.3893 59.4257 67.4465 59.3874 67.5096 59.3616C67.5728 59.3359 67.6407 59.3233 67.709 59.3247H67.6658C67.4498 59.4059 67.2338 59.2734 67.0136 59.3546C66.5816 59.4486 66.4175 59.2863 66.4434 58.8674C66.4434 58.6281 66.4434 58.3931 66.4434 58.1538C66.4295 57.9229 66.4954 57.6942 66.6305 57.5054C66.7656 57.3166 66.9616 57.179 67.1863 57.1153C67.6081 56.9706 68.0416 56.862 68.4821 56.7905C68.6506 56.6239 68.4216 56.6794 68.3871 56.6239C67.8554 56.6395 67.324 56.5863 66.8062 56.4657C66.9272 55.9743 67.0438 55.4828 67.1691 54.9914C67.3073 54.4315 67.4541 53.8717 67.601 53.3119C67.6399 53.1666 67.7349 52.9999 67.4973 52.9529C67.2598 52.9059 67.3116 53.111 67.2727 53.2179C66.6032 55.111 65.9424 57.0042 65.2729 58.8974C65.1143 59.4176 64.8785 59.9116 64.5732 60.3632C64.0462 61.0726 63.4329 61.2777 62.4826 61.0127L63.2601 60.2905C63.2083 60.1794 63.2688 60.0598 63.4934 60.1324Z" fill="white"/>
<path d="M49.1059 42.8078C47.8836 42.8078 47.2961 42.2223 46.9463 41.2608C46.739 40.7052 46.3761 40.2095 46.1904 39.6411C45.9592 38.9881 45.9901 38.2722 46.2768 37.6411C46.3286 37.5257 46.5014 37.4103 46.2768 37.265C45.0415 36.4744 44.5793 35.2052 44.2035 33.8975C44.0922 33.4796 44.0484 33.0469 44.074 32.6155C44.0763 32.3495 44.1448 32.0883 44.2734 31.8548C44.402 31.6213 44.5867 31.4227 44.8113 31.2765C45.0358 31.1304 45.2933 31.0412 45.5609 31.0168C45.8286 30.9925 46.0982 31.0337 46.3459 31.1368C46.7278 31.3064 47.0712 31.5505 47.3554 31.8545C47.6397 32.1585 47.859 32.5162 48.0002 32.9061C49.4399 36.2394 50.8883 39.5742 52.3454 42.9103C53.071 44.5856 53.788 46.2608 54.505 47.9317C54.6216 48.1967 54.6173 48.3591 54.3366 48.5044C53.9435 48.7223 53.5764 48.9873 53.1315 49.2779C53.5693 49.3204 54.0111 49.2694 54.4273 49.1283C54.6519 49.0856 54.7123 49.1283 54.7598 49.3548C55.006 50.5172 55.0147 50.5044 53.8442 50.6368C52.9544 50.7351 52.0603 50.8291 51.1749 50.9787C51.0454 51.0122 50.9083 51.0012 50.7859 50.9477C50.6635 50.8941 50.5631 50.8011 50.501 50.6838C50.1324 50.1269 49.8418 49.5232 49.6372 48.889C49.175 47.6454 48.687 46.4061 48.2723 45.1454C47.944 44.0385 48.0952 43.5898 49.1059 42.8078Z" fill="white"/>
<path d="M56.3016 48.3803C56.3016 47.0043 56.7335 45.9316 57.7615 45.141C57.9087 45.0492 58.0257 44.917 58.0984 44.7607C58.2712 44.2478 58.6383 44.1923 59.1134 44.2607C60.1155 44.3931 61.0874 44.5684 61.8735 45.2778C62.1483 45.489 62.3523 45.7775 62.4587 46.1054C62.565 46.4333 62.5688 46.7853 62.4695 47.1154C62.0376 48.6239 61.718 50.1624 61.3767 51.688C61.3163 51.9658 61.2644 52.0683 60.9448 51.906C60.3747 51.6025 59.7354 51.7008 59.1178 51.7008C58.8975 51.7008 58.6858 51.7265 58.4483 51.7008C58.0208 51.739 57.5942 51.6184 57.2516 51.3624C56.9091 51.1065 56.6751 50.7335 56.5953 50.3162C56.504 50.023 56.4376 49.7229 56.3966 49.4188C56.3251 49.0773 56.2932 48.7289 56.3016 48.3803Z" fill="white"/>
<path d="M67.8125 85.0426C65.3586 85.8551 62.8251 86.4094 60.2538 86.6965C58.3876 86.8901 56.5066 86.8986 54.6387 86.7221C53.8699 86.6537 53.4121 86.1495 52.8808 85.7307C52.7037 85.5896 52.8808 85.4913 52.9585 85.4059C53.3516 85.0213 53.749 84.6409 54.1463 84.2606C54.25 84.1666 54.3537 84.0042 54.5221 84.2007C54.6906 84.3973 54.6171 84.4828 54.4616 84.6281C54.0859 84.9486 53.723 85.2862 53.3084 85.6623C54.1944 86.0222 55.1341 86.2359 56.09 86.2948C57.71 86.3718 59.3338 86.2859 60.9362 86.0384C63.0959 85.7819 65.2296 85.4187 67.3547 84.9785C67.4747 84.9606 67.5961 84.9535 67.7175 84.9572C67.8125 84.8973 67.8125 84.9572 67.8125 85.0426Z" fill="#E3E8D4"/>
<path d="M80.3387 86.1496C79.7738 86.6585 79.1765 87.131 78.5505 87.5641C78.3504 87.6964 78.1258 87.7879 77.8896 87.8334C76.7493 88.0385 76.3131 87.7137 76.1619 86.5513C76.1279 86.4185 76.1321 86.2788 76.1741 86.1482C76.2161 86.0175 76.2941 85.9011 76.3995 85.812C76.6029 85.7043 76.7593 85.5264 76.8389 85.3121C76.9185 85.0979 76.9159 84.8621 76.8314 84.6497L80.3387 86.1496Z" fill="white"/>
<path d="M63.4935 60.1326L63.1955 60.342C62.8299 60.4002 62.4556 60.3708 62.1039 60.2563C61.7521 60.1418 61.4333 59.9455 61.1741 59.6838C60.7422 59.2907 60.8631 58.0727 61.3382 57.5727C61.4489 57.4653 61.5804 57.3812 61.7249 57.3254C61.8693 57.2696 62.0236 57.2433 62.1786 57.2481C62.3336 57.2529 62.4859 57.2887 62.6266 57.3533C62.7672 57.4179 62.8931 57.51 62.9968 57.624C63.2646 57.8676 63.4892 58.1497 63.7441 58.4018C63.8866 58.5385 63.8132 58.671 63.8045 58.8291C63.7527 59.2779 63.4201 59.6625 63.4935 60.1326Z" fill="white"/>
<path d="M67.6787 59.4016L67.277 59.5127C67.2036 59.376 67.0524 59.4529 66.9487 59.3931C67.1803 59.3012 67.4338 59.2775 67.6787 59.3247L67.7521 59.3632L67.6787 59.4016Z" fill="#847E71"/>
<path d="M68.1147 84.8461C68.2616 84.7265 68.4257 84.735 68.7626 84.8034L68.2055 84.953C68.1827 84.9438 68.1625 84.9293 68.1467 84.9107C68.1309 84.8921 68.12 84.8699 68.1147 84.8461Z" fill="#855643"/>
<path d="M68.2964 56.6753C68.4386 56.6304 68.5926 56.6396 68.7283 56.7009C68.7007 56.7623 68.6505 56.8111 68.588 56.8373C68.5254 56.8634 68.4552 56.8651 68.3914 56.842C68.3612 56.7864 68.3309 56.7309 68.2964 56.6753Z" fill="#A59D89"/>
<path d="M68.1147 84.8462L68.2054 84.953L67.7735 85.0471L67.6655 84.953C67.8124 84.8505 67.9679 84.8761 68.1147 84.8462Z" fill="#E3E8D4"/>
<path d="M54.8116 57.6922C54.777 57.6922 54.7295 57.6922 54.7165 57.6665C54.7036 57.6409 54.7165 57.5811 54.7727 57.5811C54.9106 57.5689 55.0487 57.6019 55.1657 57.6751L54.8116 57.6922Z" fill="#605C57"/>
<path d="M72.1316 15.0342C72.2007 15.8889 72.2482 16.7008 72.3562 17.5299C72.4037 17.8846 72.2007 18.0555 71.9631 18.0427C71.9037 18.0338 71.8469 18.0127 71.7962 17.9807C71.7455 17.9488 71.7021 17.9068 71.6687 17.8573C71.6354 17.8078 71.6129 17.752 71.6026 17.6934C71.5923 17.6348 71.5945 17.5748 71.609 17.5171C71.6737 17.047 71.7645 16.5769 71.8508 16.1068C71.9156 15.7564 71.9934 15.406 72.0668 15.0555L72.1316 15.0342Z" fill="#E0E5D2"/>
<path d="M41.897 15.9615L42.0006 15.8503C42.0697 15.923 42.1302 16.0512 42.208 16.064C42.8688 16.1837 42.9336 16.7563 43.1236 17.2221C43.4649 18.0768 43.7931 18.8931 44.1214 19.7307C44.1889 19.8867 44.2423 20.0483 44.2812 20.2136C44.3026 20.2884 44.295 20.3685 44.2598 20.4381C44.2247 20.5076 44.1645 20.5617 44.0912 20.5897C43.8968 20.688 43.8018 20.5597 43.7067 20.4444C43.6442 20.3632 43.596 20.2722 43.5642 20.1751C42.9969 18.7706 42.4412 17.366 41.897 15.9615Z" fill="#E3E8D4"/>
<path d="M85.7158 93.0982C85.7305 93.1558 85.7257 93.2166 85.7024 93.2714C85.679 93.3261 85.6382 93.3718 85.5862 93.4016C85.4566 93.4828 85.3962 93.3674 85.3357 93.2948C84.6533 92.5085 83.9794 91.7093 83.2927 90.9273C83.0983 90.7051 83.2236 90.6452 83.4179 90.5939C83.4969 90.5764 83.5792 90.581 83.6556 90.6075C83.7319 90.6339 83.7993 90.6811 83.8499 90.7435C84.4717 91.4026 85.0571 92.0945 85.6035 92.8161C85.6515 92.9057 85.6892 93.0003 85.7158 93.0982Z" fill="#E2E7D3"/>
<path d="M56.6602 98.2906C56.5004 99.047 56.319 99.9145 56.1333 100.778C56.1098 100.86 56.0734 100.938 56.0253 101.009C55.9389 101.145 55.8266 101.274 55.6538 101.197C55.4811 101.12 55.5675 100.953 55.589 100.829C55.7618 99.9103 55.9303 98.9915 56.129 98.0727C56.1549 97.9402 56.0728 97.6453 56.3233 97.6795C56.5738 97.7137 56.6602 97.953 56.6602 98.2906Z" fill="#E2E7D3"/>
<path d="M39.7374 94.0386C39.9447 94.654 39.6164 95.0129 39.3055 95.3933C38.8303 95.9531 38.3855 96.5386 37.9233 97.1027C37.8365 97.2084 37.7427 97.3084 37.6425 97.4018C37.5345 97.5044 37.4093 97.5557 37.2797 97.4403C37.1501 97.3249 37.2236 97.2266 37.2797 97.1198C37.3035 97.0749 37.331 97.032 37.3618 96.9916L39.7374 94.0386Z" fill="#E2E7D4"/>
<path d="M46.4797 102.415C46.2292 102.333 46.1817 102.141 46.307 101.88C46.5791 101.291 46.8555 100.705 47.1276 100.12L49.0065 96.0898C49.0324 96.0257 49.067 95.9659 49.0886 95.9018C49.1577 95.6454 49.4384 95.4744 49.581 95.5642C49.7235 95.6539 49.8056 95.9232 49.6803 96.1839C49.054 97.4915 48.4536 98.8078 47.8403 100.12C47.5466 100.752 47.2572 101.402 46.9765 102.021C46.8728 102.209 46.7864 102.402 46.4797 102.415Z" fill="#E3E8D4"/>
<path d="M77.4663 98.4145C77.6218 98.3632 77.6823 98.4358 77.7471 98.5256C78.0883 99.0341 78.4252 99.547 78.788 100.043C79.0644 100.423 78.6757 100.402 78.5202 100.513C78.3647 100.624 78.1833 100.658 78.0883 100.359C77.9112 99.7136 77.6866 99.0769 77.4663 98.4145Z" fill="#E1E6D3"/>
<path d="M51.6067 30.406C51.4472 30.7489 51.236 31.0659 50.9804 31.3462C50.7688 31.0556 51.4469 30.4915 50.6133 30.4915C50.7062 30.2712 50.8394 30.0698 51.0063 29.8975C51.0418 29.9017 51.0755 29.915 51.1043 29.936C51.133 29.9569 51.1558 29.9849 51.1705 30.0171C51.2223 30.1624 51.2828 30.3034 51.4858 30.2693C51.5635 30.2821 51.5938 30.3419 51.6067 30.406Z" fill="#BDD1CB"/>
<path d="M51.0927 29.9957L51.0063 29.8974L51.4685 29.1624C51.5088 29.2458 51.5297 29.337 51.5297 29.4294C51.5297 29.5219 51.5088 29.6131 51.4685 29.6965C51.4685 29.7735 51.3821 29.8888 51.5031 29.8974C52.2891 29.9572 51.5333 30.2393 51.5851 30.4059L51.5031 30.2991C51.3397 30.2391 51.1972 30.1337 51.0927 29.9957Z" fill="#BED3CC"/>
<path d="M74.922 30.4059L74.3518 31.3546C74.0236 31.0811 74.8658 30.4444 73.9199 30.4999C74.0111 30.2739 74.1461 30.0677 74.3173 29.8931C74.3524 29.8968 74.3858 29.9099 74.414 29.9309C74.4421 29.952 74.464 29.9803 74.4771 30.0127C74.5332 30.158 74.5937 30.2991 74.7967 30.2649C74.8143 30.2659 74.8315 30.2705 74.8474 30.2781C74.8632 30.2858 74.8773 30.2965 74.889 30.3096C74.9006 30.3227 74.9095 30.338 74.9152 30.3545C74.9208 30.371 74.9232 30.3885 74.922 30.4059Z" fill="#BDD1CB"/>
<path d="M74.9222 30.4059L74.8445 30.2991C74.6732 30.2427 74.5228 30.1371 74.4126 29.9957L74.3262 29.8974L74.7883 29.1624C74.8286 29.2458 74.8495 29.337 74.8495 29.4294C74.8495 29.5219 74.8286 29.6131 74.7883 29.6965C74.7883 29.7735 74.7019 29.8888 74.8229 29.8974C75.6306 29.9572 74.8747 30.2393 74.9222 30.4059Z" fill="#BED3CC"/>
<path d="M67.6787 59.4017C67.6831 59.3762 67.6831 59.3502 67.6787 59.3248C67.8385 59.3248 67.9854 59.2008 68.1798 59.2991C68.0243 59.4829 67.8428 59.4017 67.6787 59.4017Z" fill="#C8BB9B"/>
<path d="M51.0926 29.9956C51.2179 30.1238 51.5246 29.9956 51.5246 30.299C51.4079 30.3546 51.4252 30.5512 51.2568 30.5469C51.3648 30.3161 50.7687 30.2905 51.0926 29.9956Z" fill="#3D413B"/>
<path d="M74.4125 29.9956C74.5377 30.1238 74.8444 29.9956 74.8444 30.299C74.7278 30.3546 74.7451 30.5512 74.5766 30.5469C74.6846 30.3161 74.0885 30.2905 74.4125 29.9956Z" fill="#3D413B"/>
</g>
<defs>
<filter id="filter0_d_538_508" x="-4" y="0" width="129" height="124" filterUnits="userSpaceOnUse" color-interpolation-filters="sRGB">
<feFlood flood-opacity="0" result="BackgroundImageFix"/>
<feColorMatrix in="SourceAlpha" type="matrix" values="0 0 0 0 0 0 0 0 0 0 0 0 0 0 0 0 0 0 127 0" result="hardAlpha"/>
<feOffset dy="4"/>
<feGaussianBlur stdDeviation="2"/>
<feComposite in2="hardAlpha" operator="out"/>
<feColorMatrix type="matrix" values="0 0 0 0 0 0 0 0 0 0 0 0 0 0 0 0 0 0 0.25 0"/>
<feBlend mode="normal" in2="BackgroundImageFix" result="effect1_dropShadow_538_508"/>
<feBlend mode="normal" in="SourceGraphic" in2="effect1_dropShadow_538_508" result="shape"/>
</filter>
</defs>
</svg>
