<svg xmlns="http://www.w3.org/2000/svg" viewBox="0 0 64.96 31.7"><defs><style>.cls-1{fill:#fff;}</style></defs><g id="圖層_2" data-name="圖層 2"><g id="圖層_1-2" data-name="圖層 1"><path class="cls-1" d="M39.19,18a7.76,7.76,0,0,1-2.06,3A4.52,4.52,0,0,1,34,22.21a4.1,4.1,0,0,1-.58,0A4.77,4.77,0,0,1,30,20.33a6.31,6.31,0,0,1-1.16-3.83,9.84,9.84,0,0,1,.87-4,8.68,8.68,0,0,1,2.39-3.27A5.14,5.14,0,0,1,35.46,8a3.08,3.08,0,0,1,2.25.88,3,3,0,0,1,.88,2.22A4.83,4.83,0,0,1,36,15.21a10.82,10.82,0,0,1-4.51,1.24A8,8,0,0,0,32,19.77a2.71,2.71,0,0,0,2.6,1.78c1.5,0,2.9-1.17,4.18-3.51ZM35.38,8.4a2.35,2.35,0,0,0-1.84,1.13,9.17,9.17,0,0,0-1.39,2.91A14.93,14.93,0,0,0,31.53,16a8.91,8.91,0,0,0,2.94-1.58,6.41,6.41,0,0,0,1.69-2.07,4.71,4.71,0,0,0,.53-2.08A2.58,2.58,0,0,0,36.41,9a1.1,1.1,0,0,0-.79-.59Z"/><path class="cls-1" d="M51.83,18.29c-.42.89-.76,1.57-1,2a3.54,3.54,0,0,1-1,1.14,2.58,2.58,0,0,1-1.52.44q-2.91,0-3.27-3.6l-.38-3.81Q43.4,17.76,42.33,22H39.59L42.72,4.75a7.86,7.86,0,0,0,.16-1.37,1,1,0,0,0-.19-.69.75.75,0,0,0-.6-.22A5.86,5.86,0,0,0,41,2.66l0-.46.69-.11a15.28,15.28,0,0,0,2.72-.7A2.69,2.69,0,0,0,46,0h.36l-.86,4.75-2.36,13c.44-1.57.9-3,1.38-4.31v0h0a15.76,15.76,0,0,1,1.94-3.83,2.89,2.89,0,0,1,2.29-1.38,2.31,2.31,0,0,1,1.61.55A1.72,1.72,0,0,1,51,10.13a2.29,2.29,0,0,1-.38,1.39,1.27,1.27,0,0,1-1.11.51,1.46,1.46,0,0,1-1-.35,1.24,1.24,0,0,1-.37-.94,6.31,6.31,0,0,1,.14-.91,4.72,4.72,0,0,0,.11-.61A.29.29,0,0,0,48,8.9c-.44,0-.92.41-1.43,1.23A21.28,21.28,0,0,0,45,13.45h2.31l.44,4.86a7.27,7.27,0,0,0,.46,2.05c.24.59.56.89,1,.89a1.3,1.3,0,0,0,1-.7,17.06,17.06,0,0,0,1.19-2.26Z"/><path class="cls-1" d="M63.78,14.88l-.69,3.87q-.66,3.8-1.17,5.7a8.15,8.15,0,0,1-1.52,3.14,3.42,3.42,0,0,1-2.8,1.24c-1,0-1.57-.46-1.57-1.38a6.59,6.59,0,0,1,1.2-3.18A19.38,19.38,0,0,1,60,20.76l.41-2.28c.09-.57.25-1.42.47-2.56q.46-2.62.6-3.51a41.21,41.21,0,0,1-2.58,7C58,21.12,57,22,55.81,22c-1.5,0-2.25-.81-2.25-2.44a6.06,6.06,0,0,1,.11-1.15l1.16-6.54a19.16,19.16,0,0,0,.3-2.33A.8.8,0,0,0,55,9a.39.39,0,0,0-.34-.13c-.66,0-1.45,1-2.36,3h-.5c1.12-2.42,2.32-3.62,3.6-3.62,1.5,0,2.25.81,2.25,2.44a6.06,6.06,0,0,1-.11,1.15l-1.15,6.54a19.16,19.16,0,0,0-.3,2.33.9.9,0,0,0,.09.47.41.41,0,0,0,.35.13q1.23,0,2.81-4a74.53,74.53,0,0,0,2.84-9H65ZM58.41,26.32a32.79,32.79,0,0,0,1.36-4.74,16.31,16.31,0,0,0-2.39,3.24,6.17,6.17,0,0,0-1,2.66c0,.46.19.69.58.69S57.92,27.55,58.41,26.32Z"/><path class="cls-1" d="M12.57,16,13,13.34A15.8,15.8,0,0,1,12.5,15l-.36,1.88A9.13,9.13,0,0,0,12.57,16Z"/><path class="cls-1" d="M16.32,2.62A4.68,4.68,0,0,0,14.44.73,6.08,6.08,0,0,0,11.34,0a9.06,9.06,0,0,0-6,2.16,14,14,0,0,0-4,5.45A16.73,16.73,0,0,0,0,14.19a11.19,11.19,0,0,0,.65,3.94,6,6,0,0,0,2,2.8A5.18,5.18,0,0,0,5.9,22h.28a3,3,0,0,0,.27-.68H6.26a2.76,2.76,0,0,1-2.58-1.72,9.8,9.8,0,0,1-.88-4.49A21.42,21.42,0,0,1,3.87,8.59,15.68,15.68,0,0,1,6.88,3,5.7,5.7,0,0,1,11.28.77a4.25,4.25,0,0,1,2.37.63A3.91,3.91,0,0,1,15.07,3a5.08,5.08,0,0,1,.47,2.16A4.55,4.55,0,0,1,14.69,8a2.69,2.69,0,0,1-2.28,1.17,2.38,2.38,0,0,1-1.89-.73,2.67,2.67,0,0,1-.64-1.83,3.92,3.92,0,0,1,.57-2A2.91,2.91,0,0,1,12,3.21a3.76,3.76,0,0,0-.71-.08,3,3,0,0,0-1.68.48A3.3,3.3,0,0,0,8.43,4.89,3.47,3.47,0,0,0,8,6.53,3,3,0,0,0,9.14,8.87a5.16,5.16,0,0,0,3.41,1,4.14,4.14,0,0,0,2.34-.66,4.29,4.29,0,0,0,1.53-1.74,5.37,5.37,0,0,0-.1-4.81Z"/><path class="cls-1" d="M28.28,18q-1.92,3.51-4.18,3.51a2.71,2.71,0,0,1-2.6-1.78A8,8,0,0,1,21,16.45a10.82,10.82,0,0,0,4.51-1.24,4.83,4.83,0,0,0,2.58-4.15,3,3,0,0,0-.88-2.22A3.08,3.08,0,0,0,24.93,8a5.14,5.14,0,0,0-3.39,1.28,8.68,8.68,0,0,0-2.39,3.27,9.84,9.84,0,0,0-.87,4,6.31,6.31,0,0,0,1.16,3.83,4.77,4.77,0,0,0,3.48,1.85,4.1,4.1,0,0,0,.58,0A4.52,4.52,0,0,0,26.6,21a7.76,7.76,0,0,0,2.06-3Zm-6.66-5.6A9.17,9.17,0,0,1,23,9.53,2.35,2.35,0,0,1,24.85,8.4l.24,0a1.1,1.1,0,0,1,.79.59,2.58,2.58,0,0,1,.28,1.28,4.71,4.71,0,0,1-.53,2.08,6.41,6.41,0,0,1-1.69,2.07A8.91,8.91,0,0,1,21,16,14.93,14.93,0,0,1,21.62,12.44Z"/><path class="cls-1" d="M18.6,12.1V12a1.43,1.43,0,0,0-.29-.82,4.64,4.64,0,0,0-3.62-1.56,1.86,1.86,0,0,0-1.21.21c-.28.24-.24.81-.3,1.18-.16,1-.32,2.06-.51,3.09-.36,2.06-.79,4.11-1.3,6.13l-.15.55A30,30,0,0,1,9.62,26a10.32,10.32,0,0,1-1.33,2.19,7.57,7.57,0,0,1-.88.91,4.86,4.86,0,0,1-1,.71,3.51,3.51,0,0,1-2.24.46A2.5,2.5,0,0,1,2.35,29.1a3.17,3.17,0,0,1-.23-2.32,5,5,0,0,1,1.3-2.18,9.67,9.67,0,0,1,1-.9,11.5,11.5,0,0,0,1.11-.92,4.3,4.3,0,0,0,.87-1.22,3.56,3.56,0,0,0,.23-.72,6.33,6.33,0,0,0,.06-.73,12.48,12.48,0,0,1,.08-1.38,2.78,2.78,0,0,1,.16-.63c.13-.29.56-1,1.61,0a1.36,1.36,0,0,0,1,.4,1.34,1.34,0,0,0,1.36-1.33,1.32,1.32,0,0,0-.08-.44h0a2.08,2.08,0,0,0-.12-.22l-.11-.15-.06-.08,0-.05c-.37-.38-1.06-.7-2.21.05l-.17.11a4,4,0,0,0-1,1,3.16,3.16,0,0,0-.61,1.31c-.1.48-.13.95-.18,1.41A3.05,3.05,0,0,1,6,21.34a3.91,3.91,0,0,1-.83,1,4.17,4.17,0,0,1-.53.41c-.17.13-.37.25-.57.39A9.81,9.81,0,0,0,2.87,24a6,6,0,0,0-1.7,2.48,4.23,4.23,0,0,0,.14,3.14,3.41,3.41,0,0,0,1.1,1.28,4,4,0,0,0,1.51.67,5,5,0,0,0,3.19-.41,7.41,7.41,0,0,0,1.35-.83,10,10,0,0,0,1.13-1,11.73,11.73,0,0,0,1.75-2.48,32.5,32.5,0,0,0,2.1-5.4c.59-1.77,1.14-3.62,1.61-5.44.18-.67.35-1.35.52-2s.35-1.41.51-2.12a.53.53,0,0,1,.05-.18l0-.19c.1-.42.17-.84.29-1.25a.08.08,0,0,1,0-.05c.05,0,.2.05.25.08a.73.73,0,0,1,.21.22,1.12,1.12,0,0,1,.12.86c-.1.39-.37.71-.46,1.1a.77.77,0,0,0,.51.88C17.88,13.63,18.58,12.82,18.6,12.1Z"/><path class="cls-1" d="M16.8,10.32s-.32-.24-.4.13l-.39.14.14-.47.37-.06.29.13Z"/><path class="cls-1" d="M21.79,25h.13l0,2.1h-.11c-.08-.25-.16-.46-.22-.61a2.36,2.36,0,0,0-.23-.39,2.5,2.5,0,0,0-.86-.79A2.24,2.24,0,0,0,19.46,25a1.44,1.44,0,0,0-.57.11,1.22,1.22,0,0,0-.46.27,1.79,1.79,0,0,0-.42.8,5.33,5.33,0,0,0-.13,1.32c0,.16,0,.32,0,.48s0,.29.06.42.05.24.08.36a2,2,0,0,0,.12.28,1.31,1.31,0,0,0,.25.32,1.57,1.57,0,0,0,.32.24,2.37,2.37,0,0,0,.4.15,2.06,2.06,0,0,0,.44,0,2.44,2.44,0,0,0,.59-.07,1.54,1.54,0,0,0,.48-.2A.73.73,0,0,0,21,28.9v-.25a.78.78,0,0,0-.88-.89h-.43v-.13H23v.13H22.9a.89.89,0,0,0-.67.22.87.87,0,0,0-.22.67v1.14h-.13a1,1,0,0,0-.27-.2.84.84,0,0,0-.29-.05,1.29,1.29,0,0,0-.29,0,2.78,2.78,0,0,0-.36.13,5,5,0,0,1-.61.18,2.16,2.16,0,0,1-.54.05,3.6,3.6,0,0,1-1.15-.18,2.88,2.88,0,0,1-.92-.53,2.17,2.17,0,0,1-.61-.8,2.21,2.21,0,0,1-.22-1,2.28,2.28,0,0,1,.09-.63,2,2,0,0,1,.24-.58,2.31,2.31,0,0,1,.39-.51,3.23,3.23,0,0,1,.59-.46,3.44,3.44,0,0,1,.69-.28,2.67,2.67,0,0,1,.73-.1,2.82,2.82,0,0,1,.71.09,3.72,3.72,0,0,1,.76.3,1.29,1.29,0,0,0,.44.15.36.36,0,0,0,.25-.1A1.15,1.15,0,0,0,21.79,25Z"/><path class="cls-1" d="M23.4,25h3.38v.13H26.4a.94.94,0,0,0-.67.21.9.9,0,0,0-.22.67v2.48a1.29,1.29,0,0,0,.19.72,1.27,1.27,0,0,0,.57.47,2.08,2.08,0,0,0,.87.16,2.82,2.82,0,0,0,.83-.12,1.88,1.88,0,0,0,.61-.35,1.69,1.69,0,0,0,.41-1.2V26.39a1.22,1.22,0,0,0-.49-1.14.81.81,0,0,0-.29-.12,2.27,2.27,0,0,0-.44,0V25h2.36v.13a1.39,1.39,0,0,0-.35.06.74.74,0,0,0-.26.14.89.89,0,0,0-.31.4,1.47,1.47,0,0,0-.1.58v1.95a1.57,1.57,0,0,1-.42,1.18,1.37,1.37,0,0,1-.5.32,3.79,3.79,0,0,1-1.33.21,4.65,4.65,0,0,1-1-.11,2.18,2.18,0,0,1-.77-.32,1.29,1.29,0,0,1-.57-1.13V26a.78.78,0,0,0-.89-.88h-.2Z"/><path class="cls-1" d="M30.66,29.7h.14a.77.77,0,0,0,.88-.89c0-.13,0-.24.05-.33s0-.21,0-.34v-.47c0-.79,0-1.39-.07-1.79a1.46,1.46,0,0,0-.08-.38.66.66,0,0,0-.17-.23,1,1,0,0,0-.63-.18h-.14V25h3.07v.13h-.14a.77.77,0,0,0-.88.88v2.84a1,1,0,0,0,.22.67.94.94,0,0,0,.66.22h.14v.13H30.66Z"/><path class="cls-1" d="M34.32,25H40v2.47h-.11a3.33,3.33,0,0,0-.56-1.6A1.7,1.7,0,0,0,38,25.09H37.7v3.72a.78.78,0,0,0,.88.89h.74v.13H35.06V29.7h.73a.79.79,0,0,0,.89-.89V25.09h-.32A1.63,1.63,0,0,0,35,25.9a3,3,0,0,0-.41,1,5.33,5.33,0,0,0-.09.57h-.13Z"/><path class="cls-1" d="M43,24.86h.13l2,4.26a1,1,0,0,0,.21.33.67.67,0,0,0,.26.19.91.91,0,0,0,.35.06H46v.13H43.17V29.7h.37a.83.83,0,0,0,.4-.08.26.26,0,0,0,.13-.23.79.79,0,0,0,0-.24c0-.09-.11-.26-.23-.5a.13.13,0,0,0,0-.07,1,1,0,0,0,0-.1l-.08-.18H41.57l-.15.37a.8.8,0,0,0-.08.37.65.65,0,0,0,.09.32.57.57,0,0,0,.23.23.51.51,0,0,0,.17.08l.21,0v.13h-2V29.7a1.71,1.71,0,0,0,.34-.08,1.21,1.21,0,0,0,.29-.18,3,3,0,0,0,.72-1.07ZM42.59,26l-1,2.17h1.94Z"/><path class="cls-1" d="M49.68,27.45H48.59v1.36a.9.9,0,0,0,.22.67.92.92,0,0,0,.66.22h.15v.13H46.54V29.7h.13a.93.93,0,0,0,.67-.22.9.9,0,0,0,.22-.67V26a.9.9,0,0,0-.22-.67.93.93,0,0,0-.67-.21h-.13V25h3.78a5.48,5.48,0,0,1,1.21.11,1.39,1.39,0,0,1,.71.38,1.09,1.09,0,0,1,.24.35,1,1,0,0,1,.09.41,1,1,0,0,1-.57.89,3.21,3.21,0,0,1-.58.2,4.83,4.83,0,0,1-.73.12q-.28,0-.84,0h0c.18.12.35.22.5.3a3.05,3.05,0,0,0,.46.2l.52.15.12.17.17.25.13.2c.13.19.25.36.37.51a1.68,1.68,0,0,0,.29.3,1.1,1.1,0,0,0,.65.16h.14v.13H51.37Zm-1.09-.13H50a2.29,2.29,0,0,0,.8-.12.93.93,0,0,0,.47-.37,1.14,1.14,0,0,0,.16-.63q0-1.11-1.41-1.11H48.59Z"/></g></g></svg>