<svg id="圖層_1" data-name="圖層 1" xmlns="http://www.w3.org/2000/svg" viewBox="0 0 219.21 118.32"><defs><style>.cls-1{font-size:25.37px;font-family:HandyQuomte-Regular, Handy Quomte;}.cls-2{letter-spacing:0.01em;}.cls-3{letter-spacing:-0.02em;}</style></defs><path d="M107.43,69.89a33.05,33.05,0,0,0,1.8-2.94,1.94,1.94,0,0,0,0-1.66c-.24-.3-1.1-.24-1.63-.11-.82.21-1.57.66-2.37.94-2.19.74-4.06-.07-4.68-2.27a20.32,20.32,0,0,1-.49-4.43c0-.3.35-.7.65-.93,7-5.51,13.9-11,20.9-16.5,6-4.7,12.11-9.34,18.19-14a7.24,7.24,0,0,1,5.31-1.67,1.55,1.55,0,0,0,1-.43c1.57-1.45,3.14-2.91,4.65-4.43a2,2,0,0,1,2-.6,6.93,6.93,0,0,0,2.86-.27,1.71,1.71,0,0,0,1.18-2.09,1.93,1.93,0,0,0-2.29-1.07c-3.34.94-6.66,1.91-10,2.94-1.68.53-3.31,1.23-5,1.82a1.14,1.14,0,0,0-.92,1A4,4,0,0,1,137,25.92q-18.45,13.67-36.87,27.35a2.12,2.12,0,0,1-2.71-.06c-2-1.28-2.9-4.37-2.11-7.05a8.85,8.85,0,0,1,2.85-4.37,5.89,5.89,0,0,0-4.32.54C91,43.77,89.41,46.26,88.11,49c-.88,1.84-1.62,3.75-2.64,5.51a11.57,11.57,0,0,1-8.08,6l-1,.16,3.33-2.6-.18-.29c-3.63.76-7.36,1.11-10.77,2.74-4.85,2.31-6.65,6.82-4.38,11.7a44.53,44.53,0,0,0,4.18,6.61c1.63,2.34,3.37,4.61,5.16,6.84,3.46,4.31,7.79,5.17,12.69,2.61l.87-.44c-1.47,2.56-5,4-8.2,3.45a11,11,0,0,1-6.68-3.66Q67.26,81.5,62.5,75a11.56,11.56,0,0,1-2.35-8.26c.5-4.47,2.8-7.75,7-9.35a83.24,83.24,0,0,1,8.35-2.2,40,40,0,0,0,3.92-1.12,8.93,8.93,0,0,0,4.86-4.43,25.37,25.37,0,0,1,6.6-8.71,9.67,9.67,0,0,1,8.6-2,7.41,7.41,0,0,1,1.44.49,1.9,1.9,0,0,1,.54,3.41,7.76,7.76,0,0,0-2.9,4.76,3.66,3.66,0,0,0,.07,1.4c.21.74.6.94,1.34.44q15.75-10.68,31.53-21.3c1.49-1,3-2.07,4.46-3.06a3.52,3.52,0,0,0,1.6-2.59c.05-.34.27-.84.53-.93,5.11-1.76,10.22-3.5,15.36-5.17a8.52,8.52,0,0,1,2.63-.22,2.71,2.71,0,0,1,2.74,1.58,3.27,3.27,0,0,1-.51,3.55,5,5,0,0,1-5,1.7,1.67,1.67,0,0,0-1.87.68c-1.44,1.77-3,3.44-4.46,5.18a1.05,1.05,0,0,1-1.36.42,5.24,5.24,0,0,0-5.25,1q-15.84,12.87-31.69,25.71c-1.51,1.22-3.06,2.39-4.59,3.58-.79.61-1.34,2.93-.74,3.72a1.89,1.89,0,0,0,1.35.64,13.31,13.31,0,0,0,2.29-.47,13.79,13.79,0,0,1,1.89-.39,2.14,2.14,0,0,1,2.23,3.28A8.4,8.4,0,0,1,107.43,69.89Z"/><text class="cls-1" transform="translate(82.69 85.01)"><tspan class="cls-2">G</tspan><tspan x="15.48" y="0">e</tspan><tspan class="cls-3" x="25.8" y="0">e</tspan><tspan x="35.62" y="0">ky</tspan></text></svg>