<svg id="圖層_1" data-name="圖層 1" xmlns="http://www.w3.org/2000/svg" viewBox="0 0 280.14 271.44"><defs><style>.cls-1{fill:#e3e8d4;}.cls-2{fill:#ecf0e2;}.cls-3{fill:#f7f8f2;}.cls-4{fill:#edf1e4;}.cls-5{fill:#f5f7ef;}.cls-6{fill:#fff;}.cls-7{fill:#231916;}.cls-8{fill:#241a17;}.cls-9{fill:#241917;}.cls-10{fill:#bfc3b7;}.cls-11{fill:#050101;}.cls-12{fill:#847e71;}.cls-13{fill:#855643;}.cls-14{fill:#a59d89;}.cls-15{fill:#605c57;}.cls-16{fill:#e0e5d2;}.cls-17{fill:#e2e7d3;}.cls-18{fill:#e2e7d4;}.cls-19{fill:#e1e6d3;}.cls-20{fill:#bdd1cb;}.cls-21{fill:#bed3cc;}.cls-22{fill:#c8bb9b;}.cls-23{fill:#3d413b;}</style></defs><path class="cls-1" d="M267.08,131v8.39a14,14,0,0,0-.12,3c.17,10-1.81,19.7-4.56,29.26a118,118,0,0,1-7.63,19.64A122.59,122.59,0,0,1,237.92,217a126.26,126.26,0,0,1-23.25,21.34,125.13,125.13,0,0,1-56.86,22.09,97.62,97.62,0,0,1-11.72.54h-7.56c-14.27.18-27.93-2.88-41.19-7.92a121.14,121.14,0,0,1-35.11-20.62,125.08,125.08,0,0,1-43.56-76,86.83,86.83,0,0,1-1.18-12.27c-.09-4,0-8.07-.08-12.11a107.26,107.26,0,0,1,4.85-31.76,124.27,124.27,0,0,1,15.4-33A126,126,0,0,1,49.83,51.67a124.65,124.65,0,0,1,24-20.45A123.3,123.3,0,0,1,110.1,15.07,113.36,113.36,0,0,1,128,11.72a76.56,76.56,0,0,1,9.09-.31h10.38C161.05,11.23,174,14.3,186.65,19a122.86,122.86,0,0,1,37.14,22,125.43,125.43,0,0,1,42.39,76.6,77.61,77.61,0,0,1,.78,11.09A8.52,8.52,0,0,0,267.08,131Z"/><path class="cls-2" d="M145.61,11.43a1.85,1.85,0,0,0,0,.23H134.56c0-.08,0-.16,0-.23Z"/><path class="cls-3" d="M148.57,257.61v.23h-8.16a1.69,1.69,0,0,0,0-.23Z"/><path class="cls-4" d="M269.26,139.3H269c.1-1-.27-2.12.23-3.13Z"/><path class="cls-5" d="M269,125.38h.23v2.4C268.79,127,269.11,126.18,269,125.38Z"/><path class="cls-6" d="M118.43,212.76a48.23,48.23,0,0,1-8.29-3.06,80.67,80.67,0,0,1-18.06-11,85.89,85.89,0,0,1-22.51-27.45,81.78,81.78,0,0,1-7.62-22,91.23,91.23,0,0,1-1.48-12.55,82.69,82.69,0,0,1,6.69-37.08A81.85,81.85,0,0,1,80.08,78.77a84.93,84.93,0,0,1,18-16.12A83.85,83.85,0,0,1,149.6,48.89a82.23,82.23,0,0,1,28,6.66A84.7,84.7,0,0,1,217,90.22a82.61,82.61,0,0,1,10.2,27.22,91.57,91.57,0,0,1,1.36,12.93,79.84,79.84,0,0,1-.15,8.34,75.86,75.86,0,0,1-2.72,16.23,83.64,83.64,0,0,1-16.29,31.43,87.55,87.55,0,0,1-8.52,8.91,76,76,0,0,1-16,11.41c-1.51.8-2.86,1.93-4.62,2.19-.32-1.17.59-1.66,1.3-2.15,1.54-1.08,3.13-2.08,4.61-3.25a1.28,1.28,0,0,0,.36-1.86,1.13,1.13,0,0,0-.59-.55c-2.25-1-4.48-2.12-6.76-3.11a4.39,4.39,0,0,1-2.14-2.13c-2.4-4.35-2.83-9.05-3-13.9-.21-7.09.86-14,2-21a81.53,81.53,0,0,0,.83-16.74,56,56,0,0,0-1.59-10.9,26,26,0,0,1,1-15.09c3.51-9.79,6.59-19.72,9.46-29.71a17.29,17.29,0,0,0,.22-8.09c-.68-3.57-4-5.06-7.13-3.25a8.67,8.67,0,0,0-4.11,5,18.11,18.11,0,0,0-.71,2.79c-1.14,7.44-3.93,14.32-7.14,21-.94,2-1.91,3.87-2.91,5.79-.23.45-.45,1-1.08,1s-.73-.57-1-1c-1.44-2.58-2.78-5.21-5-7.29a6,6,0,0,0-7.47-1.14,18.49,18.49,0,0,0-2.79,1.85c-1.25,1-1.54.93-2.65-.15a9.61,9.61,0,0,0-7.42-3,8.16,8.16,0,0,0-6.62,3.5,19.25,19.25,0,0,0-1.85,3.36c-.19.43-.36,1-.93,1s-.89-.5-1.1-1c-.86-1.84-1.65-3.72-2.44-5.6q-5.44-12.94-11-25.84a17.72,17.72,0,0,0-2.09-3.63c-2.32-3.13-6.22-2.59-8.27-1.16a5.4,5.4,0,0,0-2.2,5.15,23.64,23.64,0,0,0,1.32,6.33c2.73,7.85,5.59,15.66,8.35,23.51,1.53,4.33,3,8.68,4.54,13a11.55,11.55,0,0,1,.2,6.86c-1.14,4.25-2.77,8.34-4.27,12.48-.93,2.59-2,5.12-1.89,8a11.6,11.6,0,0,0,2.33,7c3.1,4,6,8.18,9.34,12,1,1.16,2.13,2.17,3.11,3.33,4.22,5,6.19,10.84,7.06,17.18.09.67.22,1.34.25,2a6,6,0,0,1-4,6.32c-1.18.49-2.4.9-3.53,1.5a3.68,3.68,0,0,0-2.19,4.33c.29,2,.92,4,.83,6.05a6.69,6.69,0,0,1-1.42,3.87A2.4,2.4,0,0,1,118.43,212.76Z"/><path class="cls-7" d="M118.43,212.76c2.62-1.85,3.25-4.4,2.64-7.4a28.4,28.4,0,0,1-.78-4.59,3.6,3.6,0,0,1,1.87-3.38,23.13,23.13,0,0,1,3.71-1.64c3.36-1.3,4.55-3.34,4.11-6.9a44,44,0,0,0-2-9.22,27,27,0,0,0-6.19-10.13c-4.42-4.5-7.88-9.76-11.72-14.71a10.2,10.2,0,0,1-1.8-4,14.17,14.17,0,0,1,.65-8.12c1.62-4.58,3.44-9.09,4.88-13.74a13.65,13.65,0,0,0-.09-9c-4.16-11.55-8.2-23.14-12.28-34.71A29.68,29.68,0,0,1,99.71,78a6,6,0,0,1,3.52-6.33,6,6,0,0,1,7.4,1.52,16.37,16.37,0,0,1,2.65,4.53q6.38,15,12.72,29.94a5.91,5.91,0,0,0,1.29,2.18,32.35,32.35,0,0,1,2-4.08,9.18,9.18,0,0,1,13.11-2.57,9.36,9.36,0,0,1,2.23,2c.45.6.78.56,1.32.07a14,14,0,0,1,3.78-2.49,6.18,6.18,0,0,1,7.38,1.28,27.92,27.92,0,0,1,5.16,7.59,2.59,2.59,0,0,0,.79,1.18c1.72-3.59,3.45-7.11,5.1-10.68a67.85,67.85,0,0,0,5.56-18,9.69,9.69,0,0,1,5-7.37c3.45-1.88,6.91-.32,7.65,3.54a18.14,18.14,0,0,1-.29,8.66c-2.91,9.91-5.93,19.78-9.43,29.5a27.76,27.76,0,0,0-.68,16.14,65.94,65.94,0,0,1,1.25,19.77c-.35,4.83-1.22,9.58-2,14.35-1,5.9-.71,11.86-.57,17.81.09,3.72,1.76,6.83,3.17,10.07.22.52.75.68,1.23.9,2.31,1.06,4.61,2.18,6.95,3.18,1,.4,1,1.24,1.4,2,.2.4-.21.55-.45.73a44,44,0,0,1-4.87,3.48,3.37,3.37,0,0,0-1.88,2.06,14.31,14.31,0,0,1-3.63,1.75,76.6,76.6,0,0,1-10.74,3.62,3.88,3.88,0,0,1-1.17.15c-.22-.51.18-.82.4-1.18a5.91,5.91,0,0,0-.33-7,3.7,3.7,0,0,0-6.58.75,6.17,6.17,0,0,0,1.72,7.26c.38.33.94.51,1,1.12a62.26,62.26,0,0,1-10.61,1.46,36,36,0,0,1-5.59.17c-.34-.5-.09-1,0-1.5a5.63,5.63,0,0,0-.5-3.61c-.91-1.74-2.28-2.53-3.95-2.24a4.1,4.1,0,0,0-3,3.4,10.76,10.76,0,0,0,0,2.27c0,.43.16.88-.18,1.25a42.47,42.47,0,0,1-8.48-1,6.88,6.88,0,0,1-2.4-.59c-.86-.9-.81-2.14-1.2-3.22-.77-2.14-.72-2.15-2.49-.69-.59.48-1.11,1-1.66,1.56a1.63,1.63,0,0,1-1.11.64A1.79,1.79,0,0,1,118.43,212.76Z"/><path class="cls-8" d="M168.8,26.61c.87-1.26,1.74-2.51,2.59-3.78.57-.83,1.27-1.45.54-2.76s.32-2.45,1.92-2.16c1.1.19,2.19.44,3.29.65.56.1,1.21.14,1.18.89s.08,1.88-1,2.25c-2.11.76-2.74,2.88-4.11,4.32-.2.22-.06.54,0,.81.36,4.86.7,9.72,1.07,14.57a3.44,3.44,0,0,0,.68,2.1,2.19,2.19,0,0,1-.15,2.48c-.33.65-1,.44-1.62.32a45.77,45.77,0,0,1-5.5-1.11c-1.51-.52-3.06-.43-4.56-.79s-3.14-.59-4.7-.9c-.61-.12-1.4-.17-1.43-1s0-1.87.93-2.28a1.32,1.32,0,0,0,.84-1.16c1.19-6.27,2.37-12.54,3.58-18.81a1.09,1.09,0,0,0-.29-1.08,1.47,1.47,0,0,1-.47-1.29c.26-2,.55-2.23,2.54-1.83s3.84.73,5.75,1.12c.59.12,1.44,0,1.47.89s.13,2-1,2.51a1.6,1.6,0,0,0-1,1.43c-.23,1.48-.57,2.94-.87,4.41Z"/><path class="cls-8" d="M97,35.16A72.85,72.85,0,0,1,104.59,32a1,1,0,0,1,1.28.35c.42.69.93,1.54.38,2.22s-.3,1.16-.07,1.74c1.29,3.26,2.59,6.51,3.86,9.78.25.64.74,1.35.07,2a2.18,2.18,0,0,1-2.45.38,10.77,10.77,0,0,0-1.26-.38.76.76,0,0,0-1,.42c-1.87,3.15-5,4-8.17,2.12a14.69,14.69,0,0,1-5.22-5.17c-2.85-4.63-4.62-9.55-3.72-15.11A9.1,9.1,0,0,1,90,26.31a6,6,0,0,1,4.1-2.42c1-.14,2,.33,2.69-1.11.45-1,1.89-.72,2.57.31q1.56,2.34,3.06,4.71c.39.62.83,1.34.07,1.93a1.9,1.9,0,0,1-2.51.24c-.91-.72-1.75-1.53-2.68-2.21s-1.74-1.52-2.89-.69-.67,2-.28,3.05c.77,2.09,1.63,4.15,2.45,6.22.4.22.41.67.59,1,1.3,2.3,2,4.85,3.09,7.25a9.68,9.68,0,0,0,1.48,3c.43-.44.2-.86.06-1.23-.87-2.4-1.84-4.75-2.8-7.12a1.85,1.85,0,0,0-1-1.13A1.77,1.77,0,0,1,97,37,2.83,2.83,0,0,1,97,35.16Z"/><path class="cls-9" d="M202.43,216.64c2.56-.5,4.24.67,5.72,2.44a6.29,6.29,0,0,0,2.81,2.44c1.29.45,1.3,1.62.27,2.52l-2,1.71c-1.31,1.1-2.33,1.16-3.58-.06s-2.28-2.57-3.4-3.87c-.19-.21-.36-.43-.54-.64-.44-.53-1-1.24-1.65-.62s.33.95.61,1.33c.76,1,1.64,2,2.47,2.94a3.58,3.58,0,0,0,1.85,1.33,1.49,1.49,0,0,1,.53,2.74c-1.26,1.1-2.56,2.17-3.82,3.28-.49.43-1,.77-1.59.3s-1.3-.93-1-1.85a1.18,1.18,0,0,0-.37-1.28q-5.1-6-10.19-11.95a1,1,0,0,0-1.21-.46c-.88.26-1.23-.54-1.59-1.14a1.07,1.07,0,0,1,.33-1.48c2-1.73,4-3.53,6.14-5.19a6.41,6.41,0,0,1,7.41-.13,6.27,6.27,0,0,1,2.92,7C202.53,216.16,202.5,216.32,202.43,216.64Z"/><path class="cls-8" d="M130.12,40.09c.07,4.16.65,3.33-3.33,4.14-2.66.54-5.33,1-8,1.45-.62.11-1.42.44-1.79-.41s-.64-1.8.34-2.48a1.15,1.15,0,0,0,.43-1.35Q116,32,114.31,22.61c-.11-.66-.28-1.05-1-1.27-1.07-.32-1-1.33-1-2.2s.7-.88,1.25-1c3.33-.62,6.68-1.18,10-1.82a1.38,1.38,0,0,1,1.82,1c.43,1.2.93,2.37,1.39,3.56.27.67.67,1.36-.19,1.89a2.2,2.2,0,0,1-2.73-.36c-.45-.61-.8-1.29-1.22-1.92-.26-.39-.53-.92-1.11-.69s-.16.75-.1,1.12c.37,2.16.77,4.32,1.17,6.48.06.3-.08.78.52.75s.62-.4.63-.82,0-.64,0-1c0-1.17.8-1.28,1.7-1.39s1.38.28,1.53,1.2c.29,1.73.65,3.45.93,5.18.13.76.23,1.57-.83,1.8s-1.94.33-2.32-1a3.76,3.76,0,0,0-.23-.55c-.17-.36-.3-.76-.85-.58s-.33.59-.28.9q.78,4.35,1.61,8.7c.06.27-.09.73.4.74a.76.76,0,0,0,.84-.69c.15-.91.35-1.81.45-2.72a1.86,1.86,0,0,1,2-1.79c.92-.06,1.45.32,1.43,1.31C130.11,38.41,130.12,39.25,130.12,40.09Z"/><path class="cls-8" d="M133,239a5.08,5.08,0,0,1,1.78,5.33c-.15.86-.32,1.73-.5,2.58a1.5,1.5,0,0,0,.14,1.25,1.88,1.88,0,0,1-.19,2c-.36.62-1,.33-1.53.22l-2.35-.45c-2-.38-2.7-1.35-2.33-3.47.3-1.73.66-3.45,1-5.18a6.34,6.34,0,0,0,.1-1.06.75.75,0,0,0-.78-.75c-.5,0-.35.43-.41.71-.32,1.6-.64,3.21-.93,4.82a2.18,2.18,0,0,0,.16,1.7,1.86,1.86,0,0,1-.26,2c-.44.6-1.07.36-1.66.24l-4.82-.91c-.56-.1-1.18-.2-1.19-.92s-.1-1.64.73-2a1.31,1.31,0,0,0,.85-1.16q1.47-7.75,3-15.51c.07-.36.12-.71-.26-1-1-.65-.54-1.48-.21-2.23s1.07-.58,1.76-.45c2.19.45,4.39.84,6.58,1.26a6.38,6.38,0,0,1,5.56,5.74c.23,2.57-.51,5.69-3.91,6.94A1.69,1.69,0,0,0,133,239Z"/><path class="cls-8" d="M143.51,42.94h-5.27c-.56,0-1.24.08-1.37-.64s-.43-1.78.49-2.27a1.62,1.62,0,0,0,.86-1.75q-.18-9.53-.31-19a1,1,0,0,0-.57-1.06,2.27,2.27,0,0,1-.82-2.68,1,1,0,0,1,1-.51l10.78-.18a1.19,1.19,0,0,1,1.32,1.1c.28,1.33.59,2.65.87,4,.14.69.44,1.46-.53,1.82a2.21,2.21,0,0,1-2.62-.83c-.36-.71-.62-1.47-.94-2.19-.19-.4-.4-.89-.95-.73s-.27.68-.27,1c0,2.2,0,4.4.08,6.59,0,.34-.25.88.43.9s.66-.4.75-.87c.36-1.88.65-2.1,2.29-1.92.66.08,1,.38,1,1.07,0,2,.08,4,.11,6,0,.74-.29,1.25-1.09,1.3s-1.66.15-2-.85a9.35,9.35,0,0,1-.33-1.26.58.58,0,0,0-.66-.53c-.51,0-.46.34-.46.66l.15,9.22c0,.25-.06.6.36.64a.73.73,0,0,0,.85-.5c.32-.9.61-1.81.93-2.71a1.8,1.8,0,0,1,1.11-1.31c1.63-.52,2.49.16,2.29,1.84-.17,1.39-.39,2.77-.57,4.15a1.4,1.4,0,0,1-1.65,1.43c-1.76-.07-3.52,0-5.27,0Z"/><path class="cls-8" d="M196.5,34.78l3.33-4.05a1,1,0,0,0,.21-1.2,1.93,1.93,0,0,1,.17-1.93,1,1,0,0,1,1.53-.62c.88.38,1.77.73,2.65,1.09.56.23,1.29.42,1.2,1.14s-.26,1.72-1.1,2a4.2,4.2,0,0,0-2,1.63,50,50,0,0,1-3.19,3.89c-3.39,3.42-5.06,7.76-6.77,12.1a.93.93,0,0,0,.2,1.17c1,.92.24,1.8-.19,2.6s-1.15.41-1.78.15c-2.17-.9-4.34-1.8-6.51-2.68-.58-.24-1.23-.51-1.05-1.24s.35-1.9,1.45-2c.84,0,1.07-.48,1.31-1.1a15.65,15.65,0,0,1,.81-2,28,28,0,0,0,2.79-11.15c.13-1.63.32-3.25.55-4.87a3.68,3.68,0,0,0-.33-2.51c-.45-.8.22-1.61.66-2.28s1-.25,1.52,0c1.77.73,3.54,1.44,5.3,2.2.55.24,1.41.29,1.38,1.11a2.41,2.41,0,0,1-1,2.17,1.48,1.48,0,0,0-.82,1.42c-.14,1.62-.33,3.25-.5,4.87Z"/><path class="cls-8" d="M92.86,219a2.16,2.16,0,0,1,2,.64c1.33,1.09,2.68,2.15,4,3.23.43.35,1,.73.67,1.38s-.69,1.46-1.59,1.39c-.67-.06-.92.3-1.24.7q-2.73,3.42-5.48,6.82c-.39.48-.75,1.14-1.53.9a1.79,1.79,0,0,1-1.33-1.66c-.08-1-.37-1.52-1.64-1.56-2.75-.08-4.61-2.81-4.27-5.86.51-4.61,2.92-8.2,6.17-11.3a12.87,12.87,0,0,1,6.68-3.51,5.38,5.38,0,0,1,6,2.87c.18.32.22.52.74.47,1.37-.13,2.08,1.06,1.45,2.32s-1.43,2.75-2.14,4.14c-.29.57-.65,1.1-1.36.86s-1.41-.7-1.33-1.62.35-1.8.43-2.71.54-2.13-.63-2.68-1.8.54-2.42,1.26C95,216.32,94,217.62,92.86,219Z"/><path class="cls-9" d="M101.19,237.53a7.45,7.45,0,0,1,.87-3l5.67-12.24a1.57,1.57,0,0,0,.07-1.65c-.44-.75.13-1.46.6-2s1-.27,1.52,0c1.93,1,4,1.77,5.88,2.86a25.86,25.86,0,0,0,3.26,1.35c.54.21,1.11.51.92,1.2s-.3,1.58-1.11,1.69-1,.61-1.28,1.19c-2,4.38-4,8.76-6,13.12a4.73,4.73,0,0,1-5.62,3C103.08,242.35,101.21,240.34,101.19,237.53Z"/><path class="cls-8" d="M179.29,242.12c.55-1.22-.22-2.38-.58-3.57-1.3-4.39-2.68-8.76-4.05-13.13-.18-.59-.29-1.16-1.14-1.35s-1-1-1-1.74.55-.9,1-1.14c1.25-.63,2.5-1.24,3.76-1.84s1.74-.57,2.6.68c2.38,3.4,4.73,6.83,7.09,10.25.95,1.38,1.91,2.75,2.86,4.14a3.37,3.37,0,0,0,1.68,1.45,1.86,1.86,0,0,1,1.05,1.74c.1.73-.54.89-1,1.13l-4.4,2.17c-.49.24-1,.7-1.53.19a1.71,1.71,0,0,1-.55-2,1.08,1.08,0,0,0-.19-1.29c-.26-.29-.32-1-.88-.76a4.1,4.1,0,0,0-1.9,1.12,1.19,1.19,0,0,0,.85,1.62,1.81,1.81,0,0,1,1.46,1.24.93.93,0,0,1-.51,1.44c-.83.38-1.65.81-2.48,1.2C180,244.35,179.23,243.79,179.29,242.12Z"/><path class="cls-8" d="M158.5,229c.05.83.11,1.66.14,2.48,0,1.09-.74,1.29-1.57,1.44s-1.27-.27-1.4-1.07c-.22-1.26-.45-2.51-.68-3.77a1.14,1.14,0,0,1,1-1.49l10.35-2.47a1,1,0,0,1,1.27.76c.4,1.29.8,2.58,1.21,3.87.23.72.08,1.27-.7,1.51s-1.55.46-2.06-.52a3.71,3.71,0,0,0-.89-1.47,9.3,9.3,0,0,0,.09,1q1.65,7,3.32,14.08a1.9,1.9,0,0,0,1.15,1.62c.8.32.76,1.24.72,2s-.67.72-1.15.84c-1.78.43-3.57.83-5.35,1.25-.55.13-1.16.39-1.51-.24s-.69-1.48-.09-2.12a1.41,1.41,0,0,0,.24-1.51c-1.25-5.24-2.47-10.47-3.7-15.71,0-.14-.1-.28-.15-.42Z"/><path class="cls-8" d="M147.16,251c-1,0-2,0-3,0-.51,0-1.15.09-1.28-.58s-.36-1.66.44-2.06.74-.92.72-1.55l-.39-15.19a1.52,1.52,0,0,0-.81-1.57c-.87-.43-.58-1.33-.5-2s.69-.65,1.23-.67c2-.06,4.06-.14,6.09-.19.56,0,1.23-.09,1.33.67s.41,1.64-.44,2c-.68.33-.7.76-.69,1.33q.21,7.83.41,15.67c0,.47.09.89.57,1.08.64.25.71.82.77,1.37.13,1.18-.17,1.52-1.35,1.54h-3.11Z"/><path class="cls-6" d="M160.89,215.32a6.63,6.63,0,0,1-3.1-8.66,4.1,4.1,0,0,1,7-1,6.41,6.41,0,0,1-.12,8.77A12.68,12.68,0,0,1,160.89,215.32Z"/><path class="cls-6" d="M137.08,216.52a17.14,17.14,0,0,1-.33-2.59c.08-2.57,1.78-4.73,3.87-4.85s4.18,1.83,4.57,4.37a7.09,7.09,0,0,1-.5,3.5A38,38,0,0,1,137.08,216.52Z"/><path class="cls-6" d="M119.74,213.18c1.27-1.49,2.83-2.69,4.21-4.07.44-.43.55-.16.69.27a38.87,38.87,0,0,1,1.56,5.51A25.78,25.78,0,0,1,119.74,213.18Z"/><path class="cls-10" d="M97,37.35a2,2,0,0,1-.42-1c.34-.32-.05-.92.44-1.18a3.85,3.85,0,0,0,.22,1.93C97.14,37.19,97.11,37.33,97,37.35Z"/><path class="cls-8" d="M161.08,77.59c-2.12,2.26-4.27,4.67-6.57,6.93a3.21,3.21,0,0,0-1.19,3.38c.71,3.22,1.16,6.5,1.74,9.89-3.31-1.73-6.49-3.38-9.65-5.08a1.68,1.68,0,0,0-1.85,0c-3.14,1.72-6.33,3.35-9.68,5.1.47-2.77.92-5.39,1.36-8a5.22,5.22,0,0,1,.18-1.06c.89-2.14-.13-3.47-1.66-4.9-2.12-2-4-4.24-5.83-6.27,2.3-.34,5-.92,7.71-1.08,2.52-.15,4.11-1,5-3.49s2.43-5.07,3.77-7.79c.67,1.33,1.27,2.48,1.84,3.65,1,2.07,2.05,4.14,3,6.23a1.5,1.5,0,0,0,1.32,1c3.09.41,6.16.89,9.24,1.34C160.39,77.46,160.89,77.56,161.08,77.59Z"/><path class="cls-8" d="M204,144.77l-8.21-2c0-.62.44-1,.72-1.37,3.26-4.83,6.5-9.68,10-14.37a3.78,3.78,0,0,1,3.58-1.63,46.63,46.63,0,0,1,10,1.74l-9.77,10.52,8.74,2.13c-2.47,1.93-4.79,3.74-7.12,5.54l-16.84,13.09c-.32.24-.62.87-1.18.29s.13-.86.36-1.17C197.45,153.35,200.68,149.14,204,144.77Z"/><path class="cls-8" d="M95.79,142.75l-8.29,1.9c3.14,4.82,7.41,8.82,9.8,14.08l-.22.21L72.46,139.85l8.65-2.16-9.6-10.36c3.36-.88,6.51-2.14,9.95-1.92a5.59,5.59,0,0,1,3.74,2.18,76.72,76.72,0,0,1,5.27,7.26C92.23,137.41,94,140,95.79,142.75Z"/><path class="cls-8" d="M206.82,169.8c-2.66,1-5.14,1.94-7.64,2.81-.88.3-1.08.53-.36,1.28s1.51,1.83,2.38,2.9l-6.83,1.13c-2.79.46-5.58.93-8.38,1.36-.42.07-1,.41-1.21-.3s.45-.72.79-.89q2.67-1.32,5.4-2.54c.7-.31,1-.54.28-1.2s-1.5-1.66-2.26-2.48c-.3-.33-.5-.56.07-.86,3-1.53,5.86-3.38,9.07-4.53a4.09,4.09,0,0,1,3.77.34C203.48,167.79,205.07,168.74,206.82,169.8Z"/><path class="cls-8" d="M98.58,177l3.51-3.74-7.5-2.81a19.78,19.78,0,0,1,3.71-3.61,4.2,4.2,0,0,1,4.23-.29,44.11,44.11,0,0,1,6.92,4c1.85,1.19,1.84,1.2.39,2.85-1.6,1.81-1.6,1.81.52,2.83,1.36.66,2.72,1.32,4.07,2,.35.18.95.22.78.86s-.75.34-1.11.29c-4.38-.65-8.75-1.33-13.12-2Z"/><path class="cls-11" d="M118.54,67.09c3.12,0,4.25,1.83,3,4.6a8.06,8.06,0,0,1-2.09,2.88,1.24,1.24,0,0,1-1.81,0A7.47,7.47,0,0,1,115,70a2.29,2.29,0,0,1,1.6-2.62A4.86,4.86,0,0,1,118.54,67.09Z"/><path class="cls-11" d="M172.52,67.09c3.1,0,4.27,1.8,3,4.62a8.76,8.76,0,0,1-1.91,2.72,1.39,1.39,0,0,1-2.19,0,7.92,7.92,0,0,1-2.39-4.2C168.67,68.32,170,67.09,172.52,67.09Z"/><path class="cls-6" d="M147,140.71a5.15,5.15,0,0,0,1.41-4.51,2.77,2.77,0,0,0-1.19-2.25c-1.72-.77-1.31-2.1-1.19-3.38.32-3.14.67-6.27,1-9.41a2.77,2.77,0,0,0,0-.7c-.95-4.91.52-9.31,2.9-13.47s5.69-3.8,8.16-.19,4.06,7.89,2.45,12.54c-.12.37-.11.58.26.77.53.25.61-.2.78-.47,1.75-2.76,3.5-5.52,5.23-8.31a14.81,14.81,0,0,1,4.4-5,.88.88,0,0,0,.47-1c-.81-4.41.2-8.23,3.94-11,.33-.24.43-.48.31-.79-1.2-3.07.09-5.88.92-8.73.41-1.41.94-2.79,1.42-4.19a3.81,3.81,0,0,1,.27-.66c.66-1.06,1.35-2.3,2.74-2.2a3.7,3.7,0,0,1,3.18,2.43,10.31,10.31,0,0,1,.46,6.91q-5.07,17-10,33.94c-.32,1.08-.74,1.23-1.64.75a9.51,9.51,0,0,0-1.21-.48c.54,2.82,1.06,5.51,1.58,8.21,1.5,7.74,2.61,15.51,2.3,23.43a51.57,51.57,0,0,1-4.73,20c.1,0,.17.1.23.09,1.43-.3,1.43-.31,1.43,1.1q0,7.92,0,15.83a2.31,2.31,0,0,1-1.6,2.4l-15.65,5.6a1.93,1.93,0,0,1-.43,0c.34-3.18.68-6.3,1-9.43l.57-5.12c0-.45.11-.85-.57-.93s-.63.41-.68.81c-.55,4.36-1.12,8.72-1.61,13.08-.11,1-.32,1.7-1.54,1.77-.93.05-2.1.85-2.72.37s-.18-1.8-.19-2.75c0-3,0-5.91,0-8.87,0-.42.15-.91-.58-.93s-.5.51-.53.84c-.33,3.1-.59,6.2-.62,9.32,0,2.38-1,3.38-3.34,3.64-3,.33-6,.67-9,1.07-.66.08-.93,0-.92-.72q.08-9.12.09-18.23a2.6,2.6,0,0,1,.92-2l1.73-1.5c-9-5.18-15-13.15-20.68-21.54-4-6-4.44-12.29-2.51-19a64.55,64.55,0,0,1,5.15-12.07,2.84,2.84,0,0,1,2.39-1.33,1.31,1.31,0,0,0,1.3-1.42c.22-2.93.64-3.2,3.54-2.54,4.36,1,8.84,1.34,13.21,2.25a11.7,11.7,0,0,1,4.19,1.69c1.33.9,1.6,1.48,1.23,3a8,8,0,0,1-3.36,5.06c-3.76,2.53-7.92,3-12.28,2.57l-1.55-.14c-.28-.09-.56-.23-.82,0l4,2.68-8.34,9.18,2.94.33c.52.06.65-.4.87-.7a27.73,27.73,0,0,1,3.47-4,4.8,4.8,0,0,1,5.75-.9c5.39,2.81,10.3,6.26,13.85,11.32a19.22,19.22,0,0,1,2.87,6.76,8.81,8.81,0,0,0-.75-5.74,37.34,37.34,0,0,0-3.17-5.48c-.5-.73-.59-1.19.19-1.83a20.65,20.65,0,0,0,3.12-3.78,10.28,10.28,0,0,1,4.09-3.59,1.15,1.15,0,0,1,.85-.35h-.1c-.5.19-1-.12-1.51.07-1,.22-1.38-.16-1.32-1.14,0-.56,0-1.11,0-1.67a2.38,2.38,0,0,1,1.72-2.43,18.09,18.09,0,0,1,3-.76c.39-.39-.14-.26-.22-.39a14.14,14.14,0,0,1-3.66-.37c.28-1.15.55-2.3.84-3.45.32-1.31.66-2.62,1-3.93.09-.34.31-.73-.24-.84s-.43.37-.52.62c-1.55,4.43-3.08,8.86-4.63,13.29a12.83,12.83,0,0,1-1.62,3.43c-1.22,1.66-2.64,2.14-4.84,1.52l1.8-1.69C146.34,140.82,146.48,140.54,147,140.71Z"/><path class="cls-6" d="M113.69,100.17c-2.83,0-4.19-1.37-5-3.62-.48-1.3-1.32-2.46-1.75-3.79a6.32,6.32,0,0,1,.2-4.68c.12-.27.52-.54,0-.88-2.86-1.85-3.93-4.82-4.8-7.88a9.57,9.57,0,0,1-.3-3,3.79,3.79,0,0,1,5.26-3.46A7.2,7.2,0,0,1,111.13,77q5,11.7,10.06,23.41c1.68,3.92,3.34,7.84,5,11.75.27.62.26,1-.39,1.34-.91.51-1.76,1.13-2.79,1.81a7.11,7.11,0,0,0,3-.35c.52-.1.66,0,.77.53.57,2.72.59,2.69-2.12,3-2.06.23-4.13.45-6.18.8a1.37,1.37,0,0,1-1.56-.69,17.23,17.23,0,0,1-2-4.2c-1.07-2.91-2.2-5.81-3.16-8.76C111,103.05,111.35,102,113.69,100.17Z"/><path class="cls-6" d="M130.35,113.21c0-3.22,1-5.73,3.38-7.58a2.08,2.08,0,0,0,.78-.89c.4-1.2,1.25-1.33,2.35-1.17,2.32.31,4.57.72,6.39,2.38a4,4,0,0,1,1.38,4.3c-1,3.53-1.74,7.13-2.53,10.7-.14.65-.26.89-1,.51-1.32-.71-2.8-.48-4.23-.48-.51,0-1,.06-1.55,0a4,4,0,0,1-4.29-3.24,12.93,12.93,0,0,1-.46-2.1A10.72,10.72,0,0,1,130.35,113.21Z"/><path class="cls-1" d="M157,199a85.27,85.27,0,0,1-17.5,3.87,65.21,65.21,0,0,1-13,.06c-1.78-.16-2.84-1.34-4.07-2.32-.41-.33,0-.56.18-.76.91-.9,1.83-1.79,2.75-2.68.24-.22.48-.6.87-.14s.22.66-.14,1c-.87.75-1.71,1.54-2.67,2.42a20.27,20.27,0,0,0,6.44,1.48,55.48,55.48,0,0,0,11.22-.6c5-.6,9.94-1.45,14.86-2.48a4.68,4.68,0,0,1,.84-.05C157,198.66,157,198.8,157,199Z"/><path class="cls-6" d="M186,201.59a41.36,41.36,0,0,1-4.14,3.31,4.2,4.2,0,0,1-1.53.63c-2.64.48-3.65-.28-4-3a1.72,1.72,0,0,1,.55-1.73,2.18,2.18,0,0,0,1-2.72Z"/><path class="cls-6" d="M147,140.71l-.69.49a5.36,5.36,0,0,1-4.68-1.54c-1-.92-.72-3.77.38-4.94a2.66,2.66,0,0,1,3.84.12c.62.57,1.14,1.23,1.73,1.82.33.32.16.63.14,1C147.6,138.71,146.83,139.61,147,140.71Z"/><path class="cls-12" d="M156.69,139l-.93.26c-.17-.32-.52-.14-.76-.28a3,3,0,0,1,1.69-.16l.17.09Z"/><path class="cls-13" d="M157.7,198.54c.34-.28.72-.26,1.5-.1l-1.29.35A.35.35,0,0,1,157.7,198.54Z"/><path class="cls-14" d="M158.12,132.62a1.39,1.39,0,0,1,1,.06.62.62,0,0,1-.78.33C158.27,132.88,158.2,132.75,158.12,132.62Z"/><path class="cls-1" d="M157.7,198.54l.21.25-1,.22-.25-.22C157,198.55,157.36,198.61,157.7,198.54Z"/><path class="cls-15" d="M126.9,135c-.08,0-.19,0-.22-.06s0-.2.13-.2a1.46,1.46,0,0,1,.91.22Z"/><path class="cls-16" d="M167,35.18c.16,2,.27,3.9.52,5.84.11.83-.36,1.23-.91,1.2a1,1,0,0,1-.82-1.23c.15-1.1.36-2.2.56-3.3.15-.82.33-1.64.5-2.46Z"/><path class="cls-1" d="M97,37.35l.24-.26c.16.17.3.47.48.5,1.53.28,1.68,1.62,2.12,2.71.79,2,1.55,3.91,2.31,5.87a6.78,6.78,0,0,1,.37,1.13.73.73,0,0,1-.44.88c-.45.23-.67-.07-.89-.34a2.11,2.11,0,0,1-.33-.63Q98.89,42.28,97,37.35Z"/><path class="cls-17" d="M198.45,217.85a.64.64,0,0,1-.3.71c-.3.19-.44-.08-.58-.25-1.58-1.84-3.14-3.71-4.73-5.54-.45-.52-.16-.66.29-.78a1,1,0,0,1,1,.35,58.56,58.56,0,0,1,4.06,4.85A3.17,3.17,0,0,1,198.45,217.85Z"/><path class="cls-17" d="M131.18,230c-.37,1.77-.79,3.8-1.22,5.82a1.89,1.89,0,0,1-.25.54c-.2.32-.46.62-.86.44s-.2-.57-.15-.86c.4-2.15.79-4.3,1.25-6.45.06-.31-.13-1,.45-.92S131.18,229.21,131.18,230Z"/><path class="cls-18" d="M92,220.05c.48,1.44-.28,2.28-1,3.17-1.1,1.31-2.13,2.68-3.2,4a7.18,7.18,0,0,1-.65.7c-.25.24-.54.36-.84.09s-.13-.5,0-.75a2.2,2.2,0,0,1,.19-.3Z"/><path class="cls-1" d="M107.61,239.65c-.58-.19-.69-.64-.4-1.25.63-1.38,1.27-2.75,1.9-4.12l4.35-9.43c.06-.15.14-.29.19-.44.16-.6.81-1,1.14-.79s.52.84.23,1.45c-1.45,3.06-2.84,6.14-4.26,9.21-.68,1.48-1.35,3-2,4.45C108.52,239.17,108.32,239.62,107.61,239.65Z"/><path class="cls-19" d="M179.35,230.29c.36-.12.5.05.65.26.79,1.19,1.57,2.39,2.41,3.55.64.89-.26.84-.62,1.1s-.78.34-1-.36C180.38,233.33,179.86,231.84,179.35,230.29Z"/><path class="cls-20" d="M119.48,71.15a8.74,8.74,0,0,1-1.45,2.2c-.49-.68,1.08-2-.85-2a4.53,4.53,0,0,1,.91-1.39.48.48,0,0,1,.38.28c.12.34.26.67.73.59C119.38,70.86,119.45,71,119.48,71.15Z"/><path class="cls-21" d="M118.29,70.19l-.2-.23,1.07-1.72a1.45,1.45,0,0,1,0,1.25c0,.18-.2.45.08.47,1.82.14.07.8.19,1.19l-.19-.25A2.1,2.1,0,0,1,118.29,70.19Z"/><path class="cls-20" d="M173.46,71.15l-1.32,2.22c-.76-.64,1.19-2.13-1-2a4.36,4.36,0,0,1,.92-1.42.45.45,0,0,1,.37.28c.13.34.27.67.74.59A.31.31,0,0,1,173.46,71.15Z"/><path class="cls-21" d="M173.46,71.15l-.18-.25a2.1,2.1,0,0,1-1-.71l-.2-.23,1.07-1.72a1.45,1.45,0,0,1,0,1.25c0,.18-.2.45.08.47C175.1,70.1,173.35,70.76,173.46,71.15Z"/><path class="cls-22" d="M156.69,139a.54.54,0,0,0,0-.18c.37,0,.71-.29,1.16-.06C157.49,139.19,157.07,139,156.69,139Z"/><path class="cls-23" d="M118.29,70.19c.29.3,1,0,1,.71-.27.13-.23.59-.62.58C118.92,70.94,117.54,70.88,118.29,70.19Z"/><path class="cls-23" d="M172.28,70.19c.29.3,1,0,1,.71-.27.13-.23.59-.62.58C172.91,70.94,171.53,70.88,172.28,70.19Z"/></svg>