<svg id="圖層_1" data-name="圖層 1" xmlns="http://www.w3.org/2000/svg" viewBox="0 0 219.21 118.32"><defs><style>.cls-1{fill:#fff;}</style></defs><path class="cls-1" d="M120.82,51.06a7.76,7.76,0,0,1-2.06,3,4.52,4.52,0,0,1-3.1,1.17,4.1,4.1,0,0,1-.58,0,4.77,4.77,0,0,1-3.48-1.85,6.31,6.31,0,0,1-1.16-3.83,9.88,9.88,0,0,1,.87-4,8.68,8.68,0,0,1,2.39-3.27A5.14,5.14,0,0,1,117.09,41a3.08,3.08,0,0,1,2.25.88,3,3,0,0,1,.88,2.22,4.83,4.83,0,0,1-2.58,4.15,10.82,10.82,0,0,1-4.51,1.24,8,8,0,0,0,.53,3.32,2.71,2.71,0,0,0,2.6,1.78q2.26,0,4.18-3.51ZM117,41.42a2.35,2.35,0,0,0-1.84,1.13,9.17,9.17,0,0,0-1.39,2.91,14.93,14.93,0,0,0-.62,3.59,8.9,8.9,0,0,0,2.94-1.57,6.44,6.44,0,0,0,1.69-2.08,4.68,4.68,0,0,0,.53-2.08A2.58,2.58,0,0,0,118,42a1.1,1.1,0,0,0-.79-.59Z"/><path class="cls-1" d="M133.46,51.31c-.42.89-.76,1.57-1,2a3.54,3.54,0,0,1-1,1.14,2.58,2.58,0,0,1-1.52.44q-2.91,0-3.27-3.6l-.38-3.81c-.79,2.18-1.54,4.66-2.25,7.46h-2.75l3.13-17.21a7.86,7.86,0,0,0,.16-1.37,1,1,0,0,0-.19-.69.75.75,0,0,0-.6-.22,5.86,5.86,0,0,0-1.07.19l0-.46.69-.11a15.28,15.28,0,0,0,2.72-.7A2.69,2.69,0,0,0,127.59,33H128l-.86,4.75-2.36,13c.44-1.57.9-3,1.38-4.31v0h0a15.76,15.76,0,0,1,1.94-3.83,2.89,2.89,0,0,1,2.29-1.38,2.31,2.31,0,0,1,1.61.55,1.72,1.72,0,0,1,.62,1.34,2.36,2.36,0,0,1-.37,1.39,1.3,1.3,0,0,1-1.12.51,1.46,1.46,0,0,1-1-.35,1.24,1.24,0,0,1-.37-.94,6.31,6.31,0,0,1,.14-.91,5,5,0,0,0,.11-.6.29.29,0,0,0-.33-.33c-.44,0-.91.41-1.43,1.23a21.74,21.74,0,0,0-1.59,3.32h2.31l.44,4.86a7.27,7.27,0,0,0,.46,2.05c.24.59.56.89,1,.89a1.3,1.3,0,0,0,1-.7A17.06,17.06,0,0,0,133,51.31Z"/><path class="cls-1" d="M145.41,47.9l-.69,3.87q-.66,3.79-1.17,5.7A8,8,0,0,1,142,60.61a3.42,3.42,0,0,1-2.8,1.24c-1,0-1.57-.46-1.57-1.37a6.59,6.59,0,0,1,1.2-3.19,19.84,19.84,0,0,1,2.73-3.51L142,51.5c.09-.57.25-1.42.47-2.56q.47-2.62.6-3.51a41.7,41.7,0,0,1-2.58,7c-.86,1.69-1.87,2.53-3.05,2.53-1.5,0-2.25-.81-2.25-2.44a6.06,6.06,0,0,1,.11-1.15l1.16-6.54a18.93,18.93,0,0,0,.3-2.33.82.82,0,0,0-.1-.47.39.39,0,0,0-.34-.13c-.66,0-1.45,1-2.36,3h-.5q1.68-3.62,3.6-3.62c1.5,0,2.25.81,2.25,2.44a5.34,5.34,0,0,1-.11,1.15l-1.15,6.54a19.16,19.16,0,0,0-.3,2.33.9.9,0,0,0,.09.47.41.41,0,0,0,.35.14c.82,0,1.76-1.35,2.81-4a74.53,74.53,0,0,0,2.84-9h2.75ZM140,59.34a32.79,32.79,0,0,0,1.36-4.74A16.31,16.31,0,0,0,139,57.84a6.17,6.17,0,0,0-1,2.66c0,.46.19.69.58.69S139.55,60.57,140,59.34Z"/><path class="cls-1" d="M94.2,49l.47-2.64A12.17,12.17,0,0,1,94.13,48l-.36,1.88A9.13,9.13,0,0,0,94.2,49Z"/><path class="cls-1" d="M98,35.64a4.68,4.68,0,0,0-1.88-1.89A6.05,6.05,0,0,0,93,33a9.06,9.06,0,0,0-6,2.16,14,14,0,0,0-4,5.45,16.73,16.73,0,0,0-1.39,6.58,11.43,11.43,0,0,0,.65,3.94,6,6,0,0,0,2,2.8,5.18,5.18,0,0,0,3.28,1h.28a3,3,0,0,0,.27-.68h-.19a2.77,2.77,0,0,1-2.58-1.72,9.8,9.8,0,0,1-.88-4.49,21.42,21.42,0,0,1,1.07-6.48,15.84,15.84,0,0,1,3-5.58,5.73,5.73,0,0,1,4.4-2.24,4.25,4.25,0,0,1,2.37.63,3.91,3.91,0,0,1,1.42,1.63,5.08,5.08,0,0,1,.47,2.16A4.55,4.55,0,0,1,96.32,41,2.69,2.69,0,0,1,94,42.14a2.38,2.38,0,0,1-1.89-.73,2.67,2.67,0,0,1-.64-1.83,3.92,3.92,0,0,1,.57-2,2.91,2.91,0,0,1,1.52-1.32,3.76,3.76,0,0,0-.71-.08,3,3,0,0,0-1.68.48,3.3,3.3,0,0,0-1.15,1.28,3.48,3.48,0,0,0-.41,1.65,3,3,0,0,0,1.12,2.33,5.16,5.16,0,0,0,3.41,1,4.14,4.14,0,0,0,2.34-.66,4.29,4.29,0,0,0,1.53-1.74,5.37,5.37,0,0,0-.1-4.81Z"/><path class="cls-1" d="M109.91,51.06q-1.92,3.51-4.17,3.51a2.71,2.71,0,0,1-2.61-1.78,7.84,7.84,0,0,1-.52-3.32,10.82,10.82,0,0,0,4.5-1.24,4.92,4.92,0,0,0,2.36-2.83,4.54,4.54,0,0,0,.22-1.32,3,3,0,0,0-.88-2.22,3.08,3.08,0,0,0-2.25-.88,5.14,5.14,0,0,0-3.39,1.28,8.68,8.68,0,0,0-2.39,3.27,9.88,9.88,0,0,0-.87,4,6.31,6.31,0,0,0,1.16,3.83,4.77,4.77,0,0,0,3.48,1.85,4.1,4.1,0,0,0,.58,0,4.5,4.5,0,0,0,3.1-1.17,7.76,7.76,0,0,0,2.06-3Zm-6.66-5.6a9.17,9.17,0,0,1,1.39-2.91,2.35,2.35,0,0,1,1.84-1.13l.24,0a1.1,1.1,0,0,1,.79.59,2.58,2.58,0,0,1,.28,1.28,4.68,4.68,0,0,1-.53,2.08,6.44,6.44,0,0,1-1.69,2.08,8.9,8.9,0,0,1-2.94,1.57A14.93,14.93,0,0,1,103.25,45.46Z"/><path class="cls-1" d="M100.23,45.12a.08.08,0,0,0,0-.07,1.43,1.43,0,0,0-.29-.82,4.64,4.64,0,0,0-3.62-1.56,1.86,1.86,0,0,0-1.21.21c-.28.24-.24.81-.3,1.18-.15,1-.32,2.07-.51,3.1-.36,2.05-.79,4.1-1.3,6.12l-.15.55A30,30,0,0,1,91.25,59a10.32,10.32,0,0,1-1.33,2.19,7.57,7.57,0,0,1-.88.91,4.86,4.86,0,0,1-1,.71,3.59,3.59,0,0,1-2.24.47A2.54,2.54,0,0,1,84,62.12a3.17,3.17,0,0,1-.23-2.32,5,5,0,0,1,1.3-2.18,9.67,9.67,0,0,1,1-.9,10.2,10.2,0,0,0,1.11-.92A4.3,4.3,0,0,0,88,54.58a3.56,3.56,0,0,0,.23-.72,6.33,6.33,0,0,0,.06-.73c0-.47,0-.93.08-1.38a2.91,2.91,0,0,1,.16-.63c.13-.29.56-1,1.61,0a1.36,1.36,0,0,0,1,.4,1.34,1.34,0,0,0,1.36-1.33,1.32,1.32,0,0,0-.08-.44h0a2.08,2.08,0,0,0-.12-.22l-.11-.15-.06-.08a.12.12,0,0,1-.05-.05c-.37-.38-1.06-.7-2.21.05l-.17.11a4.17,4.17,0,0,0-1,1,3.16,3.16,0,0,0-.61,1.31c-.1.48-.13,1-.18,1.41a3.05,3.05,0,0,1-.33,1.26,3.92,3.92,0,0,1-.83,1c-.17.14-.34.28-.52.41l-.58.38A9.81,9.81,0,0,0,84.5,57a6,6,0,0,0-1.7,2.48,4.23,4.23,0,0,0,.14,3.14A3.41,3.41,0,0,0,84,63.94a4,4,0,0,0,1.51.67,5,5,0,0,0,3.19-.41,7.08,7.08,0,0,0,1.35-.83,9.21,9.21,0,0,0,1.13-1A11.73,11.73,0,0,0,93,59.86a32.17,32.17,0,0,0,2.1-5.4c.59-1.76,1.14-3.61,1.61-5.44.18-.67.35-1.35.52-2s.35-1.41.51-2.12a.53.53,0,0,1,.05-.18l0-.19c.1-.42.18-.84.29-1.25a.08.08,0,0,1,0,0s.2.06.25.08a.73.73,0,0,1,.21.22,1.08,1.08,0,0,1,.12.86c-.1.39-.37.71-.46,1.1a.77.77,0,0,0,.51.88C99.51,46.65,100.21,45.84,100.23,45.12Z"/><path class="cls-1" d="M98.43,43.34s-.31-.24-.4.13l-.39.14.14-.47.37-.06.3.13Z"/><path class="cls-1" d="M103.42,58h.13l0,2.1h-.11c-.08-.25-.16-.46-.22-.61a1.82,1.82,0,0,0-.23-.39,2.42,2.42,0,0,0-.86-.79,2.21,2.21,0,0,0-1.07-.29,1.65,1.65,0,0,0-.57.11,1.36,1.36,0,0,0-.46.27,1.79,1.79,0,0,0-.42.8,5.33,5.33,0,0,0-.13,1.32c0,.16,0,.32,0,.48s0,.29.06.42,0,.24.08.36a2,2,0,0,0,.12.28,1.31,1.31,0,0,0,.25.32,1.57,1.57,0,0,0,.32.24,1.38,1.38,0,0,0,.4.15,2.06,2.06,0,0,0,.44,0,2.44,2.44,0,0,0,.59-.07,1.54,1.54,0,0,0,.48-.2.73.73,0,0,0,.34-.63v-.25a.78.78,0,0,0-.88-.89h-.43v-.13h3.34v.13h-.11a.78.78,0,0,0-.89.89v1.14h-.13a1,1,0,0,0-.27-.2.85.85,0,0,0-.29,0l-.29,0-.36.13-.61.19a2.77,2.77,0,0,1-.54,0,3.6,3.6,0,0,1-1.15-.18,2.88,2.88,0,0,1-.92-.53,2.28,2.28,0,0,1-.61-.8,2.21,2.21,0,0,1-.22-1,2.28,2.28,0,0,1,.09-.63,2,2,0,0,1,.24-.58,2.31,2.31,0,0,1,.39-.51,3,3,0,0,1,.6-.46,3,3,0,0,1,.69-.28,2.55,2.55,0,0,1,.72-.1,2.82,2.82,0,0,1,.71.09,4,4,0,0,1,.77.3,1.29,1.29,0,0,0,.43.16.38.38,0,0,0,.25-.11A1.15,1.15,0,0,0,103.42,58Z"/><path class="cls-1" d="M105,58h3.38v.13H108a.9.9,0,0,0-.67.22.86.86,0,0,0-.22.66v2.48a1.22,1.22,0,0,0,.2.72,1.25,1.25,0,0,0,.56.47,2.08,2.08,0,0,0,.87.16,2.82,2.82,0,0,0,.83-.12,1.88,1.88,0,0,0,.61-.35,1.69,1.69,0,0,0,.41-1.2V59.41a1.22,1.22,0,0,0-.49-1.14.81.81,0,0,0-.29-.12,2.27,2.27,0,0,0-.44,0V58h2.36v.13a1.48,1.48,0,0,0-.35.06.74.74,0,0,0-.26.14,1,1,0,0,0-.31.4,1.47,1.47,0,0,0-.1.58v2a1.57,1.57,0,0,1-.42,1.18,1.37,1.37,0,0,1-.5.32,3.79,3.79,0,0,1-1.33.21,4.12,4.12,0,0,1-1-.11,2.18,2.18,0,0,1-.77-.32,1.29,1.29,0,0,1-.57-1.13V59a.78.78,0,0,0-.89-.88H105Z"/><path class="cls-1" d="M112.29,62.72h.14a.77.77,0,0,0,.88-.89c0-.13,0-.24,0-.33s0-.21,0-.33V60.7c0-.8,0-1.4-.07-1.8a1.46,1.46,0,0,0-.08-.38.66.66,0,0,0-.17-.23,1,1,0,0,0-.63-.18h-.14V58h3.07v.13h-.13a.93.93,0,0,0-.67.21.9.9,0,0,0-.22.67v2.84a.78.78,0,0,0,.89.89h.13v.13h-3.07Z"/><path class="cls-1" d="M116,58h5.72v2.47h-.11a3.33,3.33,0,0,0-.56-1.6,1.7,1.7,0,0,0-1.42-.75h-.25v3.72a.78.78,0,0,0,.88.89H121v.13h-4.26v-.13h.73a.79.79,0,0,0,.89-.89V58.11H118a1.63,1.63,0,0,0-1.41.81,3,3,0,0,0-.41,1,5.33,5.33,0,0,0-.09.57H116Z"/><path class="cls-1" d="M124.59,57.88h.13l2,4.26a1,1,0,0,0,.21.33.67.67,0,0,0,.26.19.91.91,0,0,0,.35.06h.13v.13H124.8v-.13h.37a.83.83,0,0,0,.4-.08.26.26,0,0,0,.13-.23.79.79,0,0,0,0-.24c0-.09-.11-.26-.22-.5l0-.07a1,1,0,0,0,0-.1l-.08-.18H123.2l-.15.37a.8.8,0,0,0-.08.37.65.65,0,0,0,.09.32.57.57,0,0,0,.23.23.51.51,0,0,0,.17.08l.21,0v.13h-2v-.13a1.71,1.71,0,0,0,.34-.08,1.21,1.21,0,0,0,.29-.18,3,3,0,0,0,.72-1.07ZM124.22,59l-1,2.17h1.94Z"/><path class="cls-1" d="M131.31,60.47h-1.09v1.36a.9.9,0,0,0,.22.67.92.92,0,0,0,.66.22h.15v.13h-3.08v-.13h.13a.93.93,0,0,0,.67-.22.9.9,0,0,0,.22-.67V59a.9.9,0,0,0-.22-.67.91.91,0,0,0-.67-.21h-.13V58H132a5.48,5.48,0,0,1,1.21.11,1.39,1.39,0,0,1,.71.38,1.21,1.21,0,0,1,.24.35,1,1,0,0,1,.09.41,1,1,0,0,1-.57.89,3.21,3.21,0,0,1-.58.2,4.83,4.83,0,0,1-.73.12q-.28,0-.84,0h0c.18.12.35.22.5.3a3.05,3.05,0,0,0,.46.2,4.71,4.71,0,0,0,.52.15l.12.17.17.25.13.2a6.21,6.21,0,0,0,.37.51,1.82,1.82,0,0,0,.29.31,1.18,1.18,0,0,0,.65.15h.14v.13H133Zm-1.09-.13h1.39a2.29,2.29,0,0,0,.8-.12,1,1,0,0,0,.48-.37,1.2,1.2,0,0,0,.15-.63q0-1.11-1.41-1.11h-1.41Z"/></svg>